# Blender 4.5.2 LTS
# www.blender.org
o cranearm_LOD3
v -0.524055 0.868091 9.534187
v -0.524055 2.175271 9.534187
v -0.859220 -0.171564 -0.080709
v -0.859220 0.086332 -0.080709
v 0.524055 0.868091 9.534187
v 0.524055 2.175271 9.534187
v 0.859220 -0.171564 -0.080709
v 0.859220 0.086332 -0.080709
v -0.271575 0.008300 13.591232
v -0.271575 0.329126 13.846497
v 0.271575 0.329126 13.846497
v 0.271575 0.008300 13.591232
v -0.277670 -0.402202 13.902086
v 0.277670 -0.402202 13.902086
vn -0.9994 -0.0000 0.0348
vn -0.0000 -0.0000 -1.0000
vn 0.9994 -0.0000 0.0348
vn -0.0000 0.9193 0.3936
vn -0.0000 -0.9942 0.1075
vn -0.0000 0.9772 -0.2123
vn -0.0000 0.0758 0.9971
vn 0.9983 -0.0090 0.0573
vn -0.9983 -0.0090 0.0573
vn -0.0000 -0.9783 -0.2073
vn 0.9999 0.0076 -0.0096
vn -0.0000 -0.6037 -0.7972
vn -0.9999 0.0076 -0.0096
vt 0.097363 0.184335
vt 0.147613 0.184335
vt 0.057316 0.575023
vt 0.047402 0.575023
vt 0.277358 0.577009
vt 0.277358 0.583392
vt 0.234831 0.583392
vt 0.234831 0.577009
vt 0.136784 0.008019
vt 0.146837 0.007854
vt 0.235801 0.403836
vt 0.187541 0.404630
vt 0.235679 0.113757
vt 0.276911 0.113757
vt 0.266979 0.344021
vt 0.245612 0.344021
vt 0.269556 0.580491
vt 0.243705 0.580491
vt 0.248747 0.435011
vt 0.264514 0.435011
vt 0.217707 0.365712
vt 0.182986 0.371662
vt 0.155693 0.171703
vt 0.176870 0.168075
vt 0.267218 0.365898
vt 0.245372 0.365898
vt 0.166998 0.577066
vt 0.154318 0.567335
vt 0.064313 0.019093
vt 0.076657 0.008709
vt 0.276817 0.582786
vt 0.235213 0.582786
vt 0.245235 0.387101
vt 0.266795 0.387101
vt 0.138528 0.579734
vt 0.244994 0.367892
vt 0.267037 0.367892
vt 0.048545 0.006412
s 0
f 1/1/1 2/2/1 4/3/1 3/4/1
f 3/5/2 4/6/2 8/7/2 7/8/2
f 7/9/3 8/10/3 6/11/3 5/12/3
f 6/13/4 2/14/4 10/15/4 11/16/4
f 3/17/5 7/18/5 5/19/5 1/20/5
f 8/21/6 4/22/6 2/23/6 6/24/6
f 11/16/7 10/15/7 13/25/7 14/26/7
f 5/12/8 6/11/8 11/27/8 12/28/8
f 2/2/9 1/1/9 9/29/9 10/30/9
f 1/31/10 5/32/10 12/33/10 9/34/10
f 12/28/11 11/27/11 14/35/11
f 9/34/12 12/33/12 14/36/12 13/37/12
f 10/30/13 9/29/13 13/38/13
