# Blender 4.5.2 LTS
# www.blender.org
o cranebody_LOD3
v -1.415824 0.460215 2.058480
v -0.611501 2.809067 2.058480
v -1.415824 0.460215 -4.996614
v -0.611501 2.809067 -4.996614
v 1.415824 0.460215 2.058480
v 0.611501 2.809067 2.058480
v 1.415824 0.460215 -4.996614
v 0.611501 2.809067 -4.996614
v -1.415824 1.831944 2.058480
v -1.415824 1.831944 -4.996614
v 1.415824 1.831944 -4.996614
v 1.415824 1.831944 2.058480
v -0.625926 0.360922 3.424399
v -0.625926 0.360922 2.047597
v 0.625925 0.360922 3.424399
v 0.625925 0.360922 2.047597
v -0.111006 2.301160 3.424399
v -0.625926 2.110366 3.424399
v -0.625926 2.110366 2.047597
v -0.111006 2.301160 2.047597
v 0.625925 2.110366 3.424399
v 0.111006 2.301160 3.424399
v 0.111006 2.301160 2.047597
v 0.625925 2.110366 2.047597
vn -0.7721 0.6355 -0.0000
vn -0.0000 -0.0000 -1.0000
vn 0.7721 0.6355 -0.0000
vn -0.0000 -0.0000 1.0000
vn -0.0000 -1.0000 -0.0000
vn -0.0000 1.0000 -0.0000
vn -1.0000 -0.0000 -0.0000
vn 1.0000 -0.0000 -0.0000
vn -0.3474 0.9377 -0.0000
vn 0.3474 0.9377 -0.0000
vt 0.697545 0.292214
vt 0.649088 0.292214
vt 0.649088 0.003934
vt 0.697545 0.003934
vt 0.580696 0.787646
vt 0.580696 0.842197
vt 0.548710 0.881055
vt 0.500073 0.881055
vt 0.468087 0.842197
vt 0.468087 0.787646
vt 0.640396 0.607647
vt 0.592784 0.607647
vt 0.592784 0.322590
vt 0.640396 0.322590
vt 0.756178 0.862779
vt 0.756178 0.806016
vt 0.789463 0.765581
vt 0.840073 0.765581
vt 0.873357 0.806016
vt 0.873357 0.862779
vt 0.474275 0.011025
vt 0.590913 0.011025
vt 0.590913 0.301632
vt 0.474275 0.301632
vt 0.647542 0.292787
vt 0.597595 0.292787
vt 0.597595 0.004663
vt 0.647542 0.004663
vt 0.750064 0.292214
vt 0.750064 0.003934
vt 0.692001 0.607647
vt 0.692001 0.322590
vt 0.618210 0.812396
vt 0.618210 0.760790
vt 0.674967 0.760790
vt 0.674967 0.812396
vt 0.827339 0.875079
vt 0.827339 0.935453
vt 0.803259 0.935453
vt 0.803259 0.875079
vt 0.837075 0.935453
vt 0.837075 0.875079
vt 0.861155 0.875079
vt 0.861155 0.935453
vt 0.674854 0.760845
vt 0.747268 0.760845
vt 0.755165 0.782159
vt 0.755165 0.791349
vt 0.747268 0.812662
vt 0.674854 0.812662
vt 0.860047 0.002887
vt 0.860047 0.073893
vt 0.804166 0.073893
vt 0.804166 0.002887
vt 0.570645 0.188908
vt 0.570645 0.296188
vt 0.539069 0.307888
vt 0.525454 0.307888
vt 0.493878 0.296188
vt 0.493878 0.188908
vt 0.867272 0.563419
vt 0.867272 0.634812
vt 0.811086 0.634812
vt 0.811086 0.563419
s 0
f 9/1/1 2/2/1 4/3/1 10/4/1
f 3/5/2 10/6/2 4/7/2 8/8/2 11/9/2 7/10/2
f 11/11/3 8/12/3 6/13/3 12/14/3
f 5/15/4 12/16/4 6/17/4 2/18/4 9/19/4 1/20/4
f 3/21/5 7/22/5 5/23/5 1/24/5
f 8/25/6 4/26/6 2/27/6 6/28/6
f 1/29/7 9/1/7 10/4/7 3/30/7
f 7/31/8 11/11/8 12/14/8 5/32/8
f 14/33/5 16/34/5 15/35/5 13/36/5
f 17/37/9 20/38/9 19/39/9 18/40/9
f 23/41/10 22/42/10 21/43/10 24/44/10
f 15/45/4 21/46/4 22/47/4 17/48/4 18/49/4 13/50/4
f 13/51/7 18/52/7 19/53/7 14/54/7
f 23/41/6 20/38/6 17/37/6 22/42/6
f 14/55/2 19/56/2 20/57/2 23/58/2 24/59/2 16/60/2
f 16/61/8 24/62/8 21/63/8 15/64/8
