# Blender 4.5.2 LTS
# www.blender.org
o bogie_LOD3
v 1.013916 0.894647 -2.192250
v -1.013916 0.894647 -1.393785
v -1.013916 0.894647 -2.192250
v 1.013916 0.894647 -1.393785
v -1.013916 0.894647 -0.696892
v 1.013916 0.894647 -0.696892
v -1.013916 0.894647 2.192250
v 1.013916 0.894647 2.192250
v -1.013916 -0.038898 0.000000
v -1.013916 0.894647 -0.000000
v -1.013916 0.894647 0.696892
v -1.013916 0.894647 1.393785
v 1.013916 0.150541 -2.192250
v 1.013916 0.216432 -0.696892
v 1.013916 0.894647 -0.000000
v 1.013916 0.894647 0.696892
v 1.013916 0.894647 1.393785
v 1.013916 0.150541 2.192250
v -1.013916 0.150541 2.192250
v -1.013916 0.150541 -2.192250
v -1.013916 -0.038898 -1.393785
v 1.013916 -0.038898 -1.393785
v -1.013916 0.216432 -0.696892
v -1.013916 0.216432 0.696892
v 1.013916 -0.038898 1.393785
v 1.013916 0.216432 0.696892
v -1.013916 -0.038898 1.393785
v 1.013916 -0.038898 0.000000
vn -0.4501 0.7713 -0.4501
vn -0.0000 0.7713 -0.6365
vn 0.4501 0.7713 0.4501
vn -0.0000 0.7713 0.6365
vn -0.5681 -0.7144 -0.4085
vn -0.6616 -0.7296 0.1731
vn 0.6481 -0.7614 -0.0105
vn 0.6460 -0.7233 -0.2438
vn -0.6481 -0.7614 0.0105
vn -0.6460 -0.7233 0.2438
vn 0.5681 -0.7144 0.4086
vn 0.6616 -0.7296 -0.1731
vn 0.1106 -0.9115 -0.3962
vn -0.1211 -0.9109 -0.3945
vn 0.4586 -0.4039 -0.7916
vn -0.3282 -0.5005 -0.8011
vn -0.1806 0.5509 -0.8148
vn -0.0000 0.5670 -0.8237
vn -0.4586 -0.4039 0.7916
vn 0.3282 -0.5005 0.8011
vn 0.1806 0.5509 0.8148
vn -0.0000 0.5670 0.8237
vn -0.5899 0.7321 0.3406
vn 0.4817 0.7321 0.4816
vn -0.8251 -0.3734 -0.4240
vn -0.7916 -0.4038 0.4586
vn -0.7893 -0.1111 0.6039
vn -0.8408 0.4507 -0.2998
vn -0.7824 -0.2822 -0.5551
vn -0.8423 -0.5390 -0.0000
vn -0.8464 0.5017 0.1785
vn -0.7817 0.0614 -0.6207
vn 0.8274 0.2997 -0.4749
vn 0.7755 0.0570 0.6287
vn 0.8251 -0.3734 0.4240
vn 0.8423 -0.5390 -0.0000
vn -0.7753 0.0370 0.6305
vn -0.8090 -0.0000 -0.5879
vn -0.7973 0.4466 -0.4061
vn 0.8464 0.5017 -0.1785
vn 0.8090 -0.0000 0.5879
vn 0.7817 0.0614 0.6207
vn 0.7824 -0.2822 0.5551
vn 0.7916 -0.4038 -0.4586
vn 0.7893 -0.1111 -0.6039
vn 0.8408 0.4507 0.2998
vn 0.8251 -0.3733 -0.4240
vn 0.8060 0.5294 -0.2647
vn -0.8423 -0.5390 0.0001
vn -0.8274 0.2997 0.4749
vn 0.5899 0.7321 -0.3406
vn -0.4817 0.7321 -0.4816
vn -0.4500 0.7713 0.4501
vn 0.6365 0.7713 -0.0000
vn -0.6365 0.7713 -0.0000
vn 0.6365 0.7713 -0.0001
vn 0.6019 -0.7965 -0.0568
vn 0.6048 -0.6995 0.3807
vn -0.1156 -0.5547 0.8240
vn -0.5647 -0.8169 -0.1175
vn 0.3378 -0.8853 0.3196
vn -0.4011 -0.8720 0.2805
vn 0.1156 -0.5547 -0.8240
vn 0.6698 -0.7264 -0.1540
vn -0.6685 -0.7295 -0.1445
vn -0.6048 -0.6995 -0.3807
vt 0.817219 0.135879
vt 0.817220 0.155552
vt 0.775445 0.155551
vt 0.775445 0.135879
vt 0.816246 0.167720
vt 0.816246 0.187541
vt 0.779510 0.187541
vt 0.779510 0.167720
vt 0.816246 0.078701
vt 0.816246 0.098522
vt 0.779510 0.098522
vt 0.779510 0.078701
vt 0.779510 0.115821
vt 0.816246 0.115821
vt 0.616574 0.674682
vt 0.681531 0.674682
vt 0.681531 0.704307
vt 0.616574 0.704307
vt 0.681531 0.704308
vt 0.616574 0.704308
vt 0.817220 0.178091
vt 0.775445 0.178091
vt 0.080277 0.608952
vt 0.080277 0.718894
vt 0.011005 0.718894
vt -0.000687 0.608952
vt 0.080277 0.115184
vt 0.080277 0.225126
vt -0.000687 0.225126
vt 0.011005 0.115184
vt 0.171731 0.423242
vt 0.138963 0.520315
vt 0.088146 0.520315
vt 0.088146 0.423242
vt 0.031055 0.512998
vt 0.080277 0.512998
vt 0.080277 0.321084
vt 0.031055 0.321084
vt 0.171731 0.617392
vt 0.088146 0.617392
vt 0.159661 0.728616
vt 0.088146 0.728616
vt 0.088146 0.117868
vt 0.159661 0.117868
vt 0.171731 0.229092
vt 0.088146 0.229092
vt 0.138963 0.326165
vt 0.088146 0.326165
vt 0.080277 0.417039
vt -0.000687 0.417039
vt 0.775445 0.054321
vt 0.817220 0.054321
vt 0.817219 0.076861
vt 0.775445 0.076861
vt 0.817219 0.096534
vt 0.775445 0.096534
vt 0.817219 0.116207
vt 0.775445 0.116207
vt 0.779510 0.150420
vt 0.779510 0.133121
vt 0.816246 0.133121
vt 0.816246 0.150420
s 1
f 6/1/1 4/2/2 2/3/3 5/4/4
f 25/5/5 18/6/6 19/7/7 27/8/8
f 13/9/9 22/10/10 21/11/11 20/12/12
f 23/13/13 21/11/11 22/10/10 14/14/14
f 3/15/15 1/16/16 13/17/17 20/18/18
f 8/15/19 7/16/20 19/19/21 18/20/22
f 2/3/3 4/2/2 1/21/23 3/22/24
f 2/23/25 3/24/26 20/25/27 21/26/28
f 7/27/29 12/28/30 27/29/31 19/30/32
f 28/31/33 14/32/34 6/33/35 15/34/36
f 23/35/37 5/36/38 2/23/25 21/26/28
f 27/29/31 12/28/30 11/37/30 24/38/39
f 14/32/34 22/39/40 4/40/41 6/33/35
f 4/40/41 22/39/40 13/41/42 1/42/43
f 8/43/44 18/44/45 25/45/46 17/46/47
f 25/45/46 26/47/48 16/48/47 17/46/47
f 24/38/39 11/37/30 10/49/49 9/50/50
f 26/47/48 28/31/33 15/34/36 16/48/47
f 9/50/50 10/49/49 5/36/38 23/35/37
f 7/51/51 8/52/52 17/53/53 12/54/54
f 17/53/53 16/55/53 11/56/54 12/54/54
f 15/57/55 6/1/1 5/4/4 10/58/56
f 16/55/53 15/57/55 10/58/56 11/56/54
f 24/59/57 9/60/58 28/61/59 26/62/60
f 27/8/8 24/59/61 26/62/62 25/5/5
f 9/60/63 23/13/64 14/14/65 28/61/66
