# Blender 4.5.2 LTS
# www.blender.org
o craneflat_bufferstems_LOD2
v 0.678678 0.959431 -6.531508
v 1.056341 0.962185 -6.531508
v 0.674272 1.137156 -6.531508
v 0.674272 0.963837 -6.550848
v 0.678677 1.141562 -6.550850
v 1.057773 0.960753 -6.550848
v 1.057773 1.140240 -6.531508
v 1.056341 1.138809 -6.550848
v 0.900763 0.956795 -6.902191
v 0.960285 1.083832 -6.902189
v 0.865900 1.143557 -6.902192
v 0.771515 1.083831 -6.902188
v 0.798477 0.984919 -6.902188
v 0.906556 0.960132 -6.548592
v 0.941247 0.976486 -6.547241
v 0.962825 0.996602 -6.550851
v 0.960627 1.050618 -6.561922
v 0.976685 1.031531 -6.550851
v 0.976602 1.069407 -6.550381
v 0.962825 1.104621 -6.550851
v 0.941111 1.124928 -6.547311
v 0.906674 1.141117 -6.548623
v 0.826183 1.140991 -6.548505
v 0.791642 1.124743 -6.547246
v 0.770058 1.104621 -6.550851
v 0.772219 1.050591 -6.561919
v 0.756197 1.069693 -6.550851
v 0.756274 1.031813 -6.550414
v 0.798014 0.984075 -6.560555
v 0.770058 0.996602 -6.550851
v 0.790268 0.975310 -6.550375
v 0.826054 0.960210 -6.548537
v 0.678678 0.959431 6.531508
v 1.056341 0.962185 6.531508
v 0.674272 1.137156 6.531508
v 0.674272 0.963837 6.550848
v 0.678677 1.141562 6.550850
v 1.057773 0.960753 6.550848
v 1.057773 1.140240 6.531508
v 1.056341 1.138809 6.550848
v 0.960287 1.016996 6.902191
v 0.900764 1.144041 6.902191
v 0.771513 1.083846 6.902188
v 0.831028 0.956796 6.902193
v 0.906556 0.960132 6.548592
v 0.941247 0.976486 6.547241
v 0.962825 0.996602 6.550851
v 0.960631 1.050604 6.561910
v 0.976685 1.031531 6.550851
v 0.976600 1.069402 6.550374
v 0.962825 1.104621 6.550851
v 0.941247 1.124737 6.547238
v 0.906554 1.141092 6.548591
v 0.826183 1.140991 6.548505
v 0.791640 1.124741 6.547246
v 0.770058 1.104621 6.550851
v 0.772216 1.050604 6.561907
v 0.756197 1.031531 6.550851
v 0.756282 1.069402 6.550373
v 0.770058 0.996602 6.550851
v 0.791641 0.976482 6.547248
v 0.826180 0.960234 6.548507
v -0.678678 0.959431 -6.531508
v -1.056341 0.962185 -6.531508
v -0.674272 1.137156 -6.531508
v -0.674272 0.963837 -6.550848
v -0.678677 1.141562 -6.550850
v -1.057773 0.960753 -6.550848
v -1.057773 1.140240 -6.531508
v -1.056341 1.138809 -6.550848
v -0.960287 1.016996 -6.902191
v -0.900764 1.144041 -6.902191
v -0.771513 1.083846 -6.902188
v -0.831028 0.956796 -6.902193
v -0.906556 0.960132 -6.548592
v -0.941247 0.976486 -6.547241
v -0.962825 0.996602 -6.550851
v -0.960631 1.050604 -6.561910
v -0.976685 1.031531 -6.550851
v -0.976600 1.069402 -6.550374
v -0.962825 1.104621 -6.550851
v -0.941247 1.124737 -6.547238
v -0.906554 1.141092 -6.548591
v -0.826183 1.140991 -6.548505
v -0.791640 1.124741 -6.547246
v -0.770058 1.104621 -6.550851
v -0.772216 1.050604 -6.561907
v -0.756197 1.031531 -6.550851
v -0.756282 1.069402 -6.550373
v -0.770058 0.996602 -6.550851
v -0.791641 0.976482 -6.547248
v -0.826180 0.960234 -6.548507
v -0.678678 0.959431 6.531508
v -1.056341 0.962185 6.531508
v -0.674272 1.137156 6.531508
v -0.674272 0.963837 6.550848
v -0.678677 1.141562 6.550850
v -1.057773 0.960753 6.550848
v -1.057773 1.140240 6.531508
v -1.056341 1.138809 6.550848
v -0.900763 0.956795 6.902191
v -0.960285 1.083832 6.902189
v -0.865900 1.143557 6.902192
v -0.771515 1.083831 6.902188
v -0.798477 0.984919 6.902188
v -0.906556 0.960132 6.548592
v -0.941247 0.976486 6.547241
v -0.962825 0.996602 6.550851
v -0.960627 1.050618 6.561922
v -0.976685 1.031531 6.550851
v -0.976602 1.069407 6.550381
v -0.962825 1.104621 6.550851
v -0.941111 1.124928 6.547311
v -0.906674 1.141117 6.548623
v -0.826183 1.140991 6.548505
v -0.791642 1.124743 6.547246
v -0.770058 1.104621 6.550851
v -0.772219 1.050591 6.561919
v -0.756197 1.069693 6.550851
v -0.756274 1.031813 6.550414
v -0.798014 0.984075 6.560555
v -0.770058 0.996602 6.550851
v -0.790268 0.975310 6.550375
v -0.826054 0.960210 6.548537
vn 0.3912 -0.9184 -0.0594
vn 0.7185 -0.6562 -0.2306
vn 0.2228 -0.9749 0.0055
vn 0.9474 0.3117 -0.0722
vn 0.7428 0.6314 -0.2228
vn 0.9175 -0.1268 -0.3769
vn 0.3491 0.1113 -0.9304
vn -0.6059 -0.6332 -0.4816
vn -0.2042 -0.9727 -0.1099
vn -0.3414 -0.4274 -0.8371
vn -0.3661 -0.9266 0.0861
vn -0.7182 -0.6574 0.2280
vn -0.2230 -0.9748 -0.0064
vn 0.3481 0.1117 0.9308
vn -0.2707 -0.1188 0.9553
vn 0.7106 0.6650 0.2298
vn 0.2702 -0.1187 0.9555
vn -0.3486 0.1119 0.9306
vn -0.7051 0.6684 0.2370
vn 0.3661 -0.9266 -0.0861
vn 0.7182 -0.6574 -0.2280
vn 0.2230 -0.9748 0.0064
vn -0.3481 0.1117 -0.9308
vn 0.2707 -0.1188 -0.9553
vn -0.7106 0.6650 -0.2298
vn -0.2702 -0.1187 -0.9555
vn 0.3486 0.1119 -0.9306
vn 0.7051 0.6684 -0.2370
vn -0.6019 -0.7962 -0.0612
vn -0.6412 -0.4838 -0.5956
vn 0.5555 -0.5541 -0.6200
vn 0.7069 -0.7052 -0.0542
vn -0.3912 -0.9184 0.0594
vn -0.7185 -0.6562 0.2306
vn -0.2228 -0.9749 -0.0055
vn -0.9474 0.3117 0.0722
vn -0.7428 0.6314 0.2228
vn -0.9175 -0.1268 0.3769
vn -0.3491 0.1113 0.9304
vn 0.6059 -0.6332 0.4816
vn 0.2042 -0.9727 0.1099
vn 0.3414 -0.4274 0.8371
vn -0.7974 0.6017 0.0463
vn -0.5058 0.6690 -0.5447
vn 0.5993 0.5978 -0.5325
vn 0.7070 0.7052 0.0542
vn -0.9262 0.0616 -0.3721
vn -0.9384 0.3430 -0.0416
vn -0.7305 -0.6823 -0.0283
vn -0.2844 0.9582 -0.0305
vn 0.2834 0.9585 -0.0316
vn -0.0006 0.9979 -0.0649
vn -0.7498 0.6231 -0.2227
vn -0.1564 0.0360 -0.9870
vn 0.1552 -0.0353 -0.9872
vn -0.4643 -0.1036 -0.8796
vn -0.2650 -0.1164 -0.9572
vn -0.6019 -0.7962 0.0612
vn 0.7069 -0.7052 0.0542
vn 0.5555 -0.5541 0.6199
vn -0.6412 -0.4838 0.5956
vn 0.0622 0.0368 -0.9974
vn -0.7974 0.6017 -0.0463
vn -0.5058 0.6690 0.5447
vn 0.7070 0.7052 -0.0542
vn 0.5993 0.5978 0.5325
vn -0.9317 0.3533 0.0844
vn -0.9185 -0.1273 0.3744
vn 0.7133 -0.6584 0.2401
vn 0.9244 -0.0372 0.3795
vn 0.9312 -0.3540 0.0870
vn 0.3650 0.9268 0.0882
vn 0.2226 0.9749 -0.0045
vn -0.2465 0.9682 0.0433
vn 0.2459 -0.9683 0.0430
vn -0.1566 0.0361 0.9870
vn 0.1563 0.0361 0.9870
vn 0.6019 -0.7962 -0.0612
vn -0.7069 -0.7052 -0.0542
vn -0.5555 -0.5541 -0.6199
vn 0.6412 -0.4838 -0.5956
vn 0.7974 0.6017 0.0463
vn 0.5058 0.6690 -0.5447
vn -0.7070 0.7052 0.0542
vn -0.5993 0.5978 -0.5325
vn 0.9317 0.3533 -0.0844
vn 0.9185 -0.1273 -0.3744
vn -0.7133 -0.6584 -0.2401
vn -0.9244 -0.0372 -0.3795
vn -0.9312 -0.3540 -0.0870
vn -0.3650 0.9268 -0.0882
vn -0.2226 0.9749 0.0045
vn 0.2465 0.9682 -0.0433
vn -0.2459 -0.9683 -0.0430
vn 0.1566 0.0361 -0.9870
vn -0.1563 0.0361 -0.9870
vn 0.6019 -0.7962 0.0612
vn 0.6412 -0.4838 0.5956
vn -0.5555 -0.5541 0.6200
vn -0.7069 -0.7052 0.0542
vn 0.7974 0.6017 -0.0463
vn 0.5058 0.6690 0.5447
vn -0.5993 0.5978 0.5325
vn -0.7070 0.7052 -0.0542
vn 0.9262 0.0616 0.3721
vn 0.9384 0.3430 0.0416
vn 0.7305 -0.6823 0.0283
vn 0.2844 0.9582 0.0305
vn -0.2834 0.9585 0.0316
vn 0.0006 0.9979 0.0649
vn 0.7498 0.6231 0.2227
vn 0.1564 0.0360 0.9870
vn -0.1552 -0.0353 0.9872
vn 0.4643 -0.1036 0.8796
vn 0.2650 -0.1164 0.9572
vn -0.0622 0.0368 0.9974
vt 0.322007 0.528837
vt 0.301711 0.531284
vt 0.301712 0.528243
vt 0.322004 0.537471
vt 0.301711 0.539934
vt 0.301709 0.535622
vt 0.416308 0.994591
vt 0.420922 0.993780
vt 0.417456 0.995908
vt 0.412487 0.985307
vt 0.410599 0.986735
vt 0.411629 0.984608
vt 0.301716 0.507929
vt 0.322005 0.505510
vt 0.322012 0.508519
vt 0.643765 0.992949
vt 0.641625 0.992078
vt 0.640303 0.990821
vt 0.641642 0.980379
vt 0.643824 0.979493
vt 0.640304 0.981665
vt 0.322007 0.559013
vt 0.301717 0.557355
vt 0.301709 0.560364
vt 0.417456 0.995908
vt 0.419596 0.995036
vt 0.420919 0.993780
vt 0.419579 0.983336
vt 0.417397 0.982451
vt 0.420918 0.984623
vt 0.111379 0.300542
vt 0.110207 0.300919
vt 0.110208 0.278382
vt 0.111380 0.278382
vt 0.301724 0.477752
vt 0.322019 0.479439
vt 0.322018 0.476398
vt 0.301724 0.485620
vt 0.322017 0.488090
vt 0.322019 0.483777
vt 0.644913 0.991632
vt 0.640299 0.990821
vt 0.643765 0.992949
vt 0.648734 0.982348
vt 0.650622 0.983776
vt 0.649592 0.981648
vt 0.111378 0.311431
vt 0.110207 0.311808
vt 0.110208 0.345674
vt 0.110208 0.334786
vt 0.111379 0.334786
vt 0.111380 0.345674
vt 0.461186 0.856257
vt 0.461053 0.878811
vt 0.450643 0.878811
vt 0.450776 0.855991
vt 0.301717 0.557354
vt 0.301722 0.552986
vt 0.322016 0.551145
vt 0.322012 0.557307
vt 0.301717 0.545632
vt 0.301713 0.542976
vt 0.322010 0.544308
vt 0.301721 0.548641
vt 0.322004 0.560355
vt 0.412962 0.995066
vt 0.411608 0.993786
vt 0.415124 0.995940
vt 0.420917 0.984623
vt 0.415059 0.982452
vt 0.417410 0.982444
vt 0.416245 0.983785
vt 0.107371 0.346492
vt 0.107372 0.324144
vt 0.108543 0.324144
vt 0.108543 0.346492
vt 0.412910 0.983332
vt 0.301713 0.525588
vt 0.107372 0.289900
vt 0.107371 0.279011
vt 0.108543 0.279389
vt 0.108544 0.290277
vt 0.107372 0.313255
vt 0.108543 0.313255
vt 0.459070 0.789649
vt 0.469479 0.789649
vt 0.469613 0.812203
vt 0.459203 0.812469
vt 0.301708 0.499294
vt 0.322001 0.501141
vt 0.322019 0.483777
vt 0.301724 0.481878
vt 0.301719 0.490513
vt 0.322013 0.491131
vt 0.322009 0.493787
vt 0.301724 0.476411
vt 0.322004 0.496796
vt 0.322017 0.488090
vt 0.649613 0.990828
vt 0.648259 0.992107
vt 0.646097 0.992981
vt 0.644914 0.991632
vt 0.648311 0.980372
vt 0.649627 0.981617
vt 0.646174 0.979486
vt 0.644975 0.980827
vt 0.322020 0.511175
vt 0.110207 0.300919
vt 0.110207 0.311808
vt 0.110208 0.334786
vt 0.461186 0.856257
vt 0.322016 0.551145
vt 0.301722 0.552986
vt 0.301711 0.531284
vt 0.301709 0.535622
vt 0.322005 0.533729
vt 0.322008 0.542364
vt 0.322008 0.526892
vt 0.301721 0.548641
vt 0.301711 0.539935
vt 0.411608 0.993786
vt 0.416308 0.994591
vt 0.411594 0.984576
vt 0.415046 0.982445
vt 0.416246 0.983785
vt 0.107372 0.324144
vt 0.108544 0.290277
vt 0.107371 0.279011
vt 0.108543 0.313255
vt 0.459203 0.812469
vt 0.322005 0.505509
vt 0.322001 0.501141
vt 0.301708 0.499295
vt 0.301710 0.505456
vt 0.301716 0.492457
vt 0.322004 0.496796
vt 0.301721 0.509873
vt 0.646161 0.979493
vt 0.643810 0.979486
vt 0.644976 0.980826
s 1
f 9/1/1 15/2/2 14/3/3
f 10/4/4 21/5/5 17/6/6
f 17/7/6 21/8/5 19/9/7
f 29/10/8 32/11/9 31/12/10
f 44/13/11 61/14/12 62/15/13
f 50/16/14 51/17/15 52/18/16
f 56/19/17 59/20/18 55/21/19
f 74/22/20 91/23/21 92/24/22
f 80/25/23 81/26/24 82/27/25
f 86/28/26 89/29/27 85/30/28
f 1/31/29 4/32/30 6/33/31 2/34/32
f 101/35/33 107/36/34 106/37/35
f 102/38/36 113/39/37 109/40/38
f 109/41/38 113/42/37 111/43/39
f 121/44/40 124/45/41 123/46/42
f 3/47/43 5/48/44 4/32/30 1/31/29
f 6/49/31 8/50/45 7/51/46 2/52/32
f 5/53/44 8/54/45 6/55/31 4/56/30
f 5/48/44 3/47/43 7/51/46 8/50/45
f 15/2/2 9/1/1 10/4/4 17/6/6
f 29/57/8 26/58/47 12/59/48 13/60/49
f 23/61/50 22/62/51 11/63/52
f 21/5/5 10/4/4 11/63/52 22/62/51
f 12/59/48 26/58/47 24/64/53
f 24/64/53 23/61/50 11/63/52 12/59/48
f 29/57/8 13/60/49 9/65/1 32/24/9
f 16/66/54 15/67/2 19/9/7 18/68/54
f 17/7/6 19/9/7 15/67/2
f 25/28/55 24/69/53 28/70/56 27/71/55
f 19/9/7 21/8/5 20/26/57
f 26/72/47 28/70/56 24/69/53
f 31/12/10 28/70/56 26/72/47 29/10/8
f 33/73/58 34/74/59 38/75/60 36/76/61
f 28/70/56 31/12/10 30/77/62
f 9/1/1 14/3/3 32/78/9
f 35/79/63 33/80/58 36/81/61 37/82/64
f 39/83/65 40/84/66 38/75/60 34/74/59
f 38/85/60 40/86/66 37/87/64 36/88/61
f 37/82/64 40/84/66 39/83/65 35/79/63
f 61/14/12 44/13/11 43/89/67 57/90/68
f 46/36/69 48/91/70 41/92/71
f 42/93/72 53/94/73 54/95/74
f 46/36/69 41/92/71 44/96/11 45/37/75
f 55/97/19 43/89/67 42/93/72 54/95/74
f 55/97/19 57/90/68 43/89/67
f 52/98/16 53/94/73 42/93/72
f 52/98/16 42/93/72 41/92/71 48/91/70
f 50/16/14 46/99/69 47/100/76 49/101/76
f 46/99/69 50/16/14 48/102/70
f 60/103/77 61/104/12 59/20/18 58/105/77
f 48/102/70 50/16/14 52/18/16
f 55/21/19 59/20/18 57/106/68
f 57/106/68 59/20/18 61/104/12
f 62/15/13 45/107/75 44/13/11
f 63/31/78 64/34/79 68/33/80 66/108/81
f 65/47/82 63/31/78 66/108/81 67/109/83
f 69/51/84 70/110/85 68/49/80 64/52/79
f 68/55/80 70/54/85 67/111/83 66/56/81
f 67/109/83 70/110/85 69/51/84 65/47/82
f 91/23/21 74/22/20 73/112/86 87/113/87
f 76/114/88 78/115/89 71/116/90
f 72/117/91 83/62/92 84/61/93
f 76/114/88 71/116/90 74/118/20 75/3/94
f 85/119/28 73/112/86 72/117/91 84/61/93
f 85/119/28 87/113/87 73/112/86
f 82/120/25 83/62/92 72/117/91
f 82/120/25 72/117/91 71/116/90 78/115/89
f 80/25/23 76/121/88 77/66/95 79/68/95
f 76/121/88 80/25/23 78/122/89
f 90/77/96 91/123/21 89/29/27 88/124/96
f 78/122/89 80/25/23 82/27/25
f 85/30/28 89/29/27 87/125/87
f 87/125/87 89/29/27 91/123/21
f 92/78/22 75/3/94 74/118/20
f 93/73/97 96/76/98 98/75/99 94/126/100
f 95/79/101 97/127/102 96/81/98 93/128/97
f 98/75/99 100/129/103 99/83/104 94/126/100
f 97/87/102 100/86/103 98/85/99 96/130/98
f 97/127/102 95/79/101 99/83/104 100/129/103
f 107/36/34 101/35/33 102/38/36 109/40/38
f 121/131/40 118/132/105 104/133/106 105/134/107
f 115/95/108 114/94/109 103/135/110
f 113/39/37 102/38/36 103/135/110 114/94/109
f 104/133/106 118/132/105 116/136/111
f 116/136/111 115/95/108 103/135/110 104/133/106
f 121/131/40 105/134/107 101/137/33 124/15/41
f 108/100/112 107/99/34 111/43/39 110/101/112
f 109/41/38 111/43/39 107/99/34
f 117/19/113 116/21/111 120/138/114 119/139/113
f 111/43/39 113/42/37 112/17/115
f 118/140/105 120/138/114 116/21/111
f 123/46/42 120/138/114 118/140/105 121/44/40
f 120/138/114 123/46/42 122/103/116
f 101/137/33 106/107/35 124/15/41
