# Blender 4.5.2 LTS
# www.blender.org
o craneflat_frame_LOD4
v -1.468246 0.490957 6.519581
v -1.468246 1.947547 6.519581
v -1.468246 0.490957 -6.519581
v -1.468246 1.947547 -6.519581
v 1.468246 0.490957 6.519581
v 1.468246 1.947547 6.519581
v 1.468246 0.490957 -6.519581
v 1.468246 1.947547 -6.519581
vn -1.0000 -0.0000 -0.0000
vn -0.0000 -0.0000 -1.0000
vn 1.0000 -0.0000 -0.0000
vn -0.0000 -0.0000 1.0000
vn -0.0000 -1.0000 -0.0000
vn -0.0000 1.0000 -0.0000
vt 0.377387 0.276897
vt 0.429981 0.276897
vt 0.429981 0.747711
vt 0.377387 0.747711
vt 0.369396 0.813546
vt 0.369396 0.904787
vt 0.185455 0.904787
vt 0.185455 0.813546
vt 0.427367 0.473642
vt 0.375253 0.473642
vt 0.375254 0.007132
vt 0.427367 0.007132
vt 0.815392 0.547661
vt 0.903920 0.547661
vt 0.903920 0.726133
vt 0.815392 0.726133
vt 0.212433 0.759626
vt 0.042430 0.759626
vt 0.042430 0.004744
vt 0.212433 0.004744
vt 0.872715 0.728827
vt 0.755134 0.728827
vt 0.755134 0.206720
vt 0.872715 0.206720
s 0
f 1/1/1 2/2/1 4/3/1 3/4/1
f 3/5/2 4/6/2 8/7/2 7/8/2
f 7/9/3 8/10/3 6/11/3 5/12/3
f 5/13/4 6/14/4 2/15/4 1/16/4
f 3/17/5 7/18/5 5/19/5 1/20/5
f 8/21/6 4/22/6 2/23/6 6/24/6
