# Blender 4.5.1 LTS
# www.blender.org
o craneflat_brakeshoes
v 0.719842 0.278863 -0.478994
v 0.746099 0.274656 -0.492162
v 0.719842 0.274656 -0.492162
v 0.797375 0.278863 -0.478994
v 0.771123 0.274656 -0.492162
v 0.797375 0.274656 -0.492162
v 0.797405 0.360002 -0.517781
v 0.771123 0.274656 -0.492162
v 0.797375 0.274656 -0.492162
v 0.771153 0.360002 -0.517781
v 0.797405 0.453844 -0.527024
v 0.771154 0.453844 -0.527024
v 0.797405 0.547685 -0.517781
v 0.771153 0.547685 -0.517781
v 0.797375 0.633031 -0.492162
v 0.771123 0.633031 -0.492162
v 0.746122 0.360002 -0.517781
v 0.719842 0.274656 -0.492162
v 0.746099 0.274656 -0.492162
v 0.719872 0.360002 -0.517781
v 0.746121 0.453844 -0.527024
v 0.719872 0.453844 -0.527024
v 0.746122 0.547685 -0.517781
v 0.719872 0.547685 -0.517781
v 0.746100 0.633031 -0.492162
v 0.719842 0.633031 -0.492162
v 0.797405 0.547685 -0.517781
v 0.797375 0.628824 -0.478994
v 0.797375 0.633031 -0.492162
v 0.797399 0.544994 -0.504254
v 0.797405 0.453844 -0.527024
v 0.797399 0.453844 -0.513232
v 0.797399 0.362693 -0.504254
v 0.797405 0.360002 -0.517781
v 0.797375 0.278863 -0.478994
v 0.797375 0.274656 -0.492162
v 0.719856 0.365480 -0.490240
v 0.719842 0.290768 -0.441732
v 0.719842 0.283193 -0.465444
v 0.719842 0.370329 -0.465866
v 0.719842 0.453844 -0.474092
v 0.719856 0.453844 -0.498943
v 0.719856 0.542207 -0.490240
v 0.719842 0.537359 -0.465866
v 0.719842 0.616920 -0.441732
v 0.719842 0.624495 -0.465444
v 0.719842 0.290768 -0.441732
v 0.797375 0.372151 -0.456701
v 0.797375 0.293599 -0.432872
v 0.719842 0.370329 -0.465866
v 0.719842 0.453844 -0.474092
v 0.797375 0.453844 -0.464747
v 0.797375 0.535535 -0.456701
v 0.719842 0.537359 -0.465866
v 0.719842 0.616920 -0.441732
v 0.797375 0.614089 -0.432872
v 0.771153 0.360002 -0.517781
v 0.771126 0.280946 -0.507109
v 0.771123 0.274656 -0.492162
v 0.771153 0.357568 -0.530110
v 0.771154 0.453844 -0.527024
v 0.771154 0.453844 -0.539592
v 0.771153 0.547685 -0.517781
v 0.771153 0.550119 -0.530110
v 0.771123 0.633031 -0.492162
v 0.771123 0.636627 -0.504142
v 0.746100 0.633031 -0.492162
v 0.746100 0.636627 -0.504142
v 0.771123 0.636627 -0.504142
v 0.771123 0.633031 -0.492162
v 0.719842 0.628824 -0.478994
v 0.719842 0.633031 -0.492162
v 0.797375 0.628824 -0.478994
v 0.797375 0.633031 -0.492162
v 0.746099 0.274656 -0.492162
v 0.746102 0.280946 -0.507109
v 0.746122 0.357568 -0.530110
v 0.746122 0.360002 -0.517781
v 0.746121 0.453844 -0.539592
v 0.746121 0.453844 -0.527024
v 0.746122 0.550119 -0.530110
v 0.746122 0.547685 -0.517781
v 0.746100 0.636627 -0.504142
v 0.746100 0.633031 -0.492162
v 0.771123 0.274656 -0.492162
v 0.771126 0.280946 -0.507109
v 0.746102 0.280946 -0.507109
v 0.746099 0.274656 -0.492162
v 0.746102 0.280946 -0.507109
v 0.771126 0.280946 -0.507109
v 0.771153 0.357568 -0.530110
v 0.746122 0.357568 -0.530110
v 0.746121 0.453844 -0.539592
v 0.771154 0.453844 -0.539592
v 0.771153 0.550119 -0.530110
v 0.746122 0.550119 -0.530110
v 0.771123 0.636627 -0.504142
v 0.746100 0.636627 -0.504142
v 0.797392 0.542207 -0.490240
v 0.797375 0.614089 -0.432872
v 0.797375 0.624495 -0.465444
v 0.797375 0.535535 -0.456701
v 0.797392 0.453844 -0.498943
v 0.797375 0.453844 -0.464747
v 0.797375 0.372151 -0.456701
v 0.797392 0.365480 -0.490240
v 0.797375 0.293599 -0.432872
v 0.797375 0.283193 -0.465444
v 0.719842 0.628824 -0.478994
v 0.719872 0.547685 -0.517781
v 0.719842 0.633031 -0.492162
v 0.719864 0.544994 -0.504254
v 0.719864 0.453844 -0.513232
v 0.719872 0.453844 -0.527024
v 0.719872 0.360002 -0.517781
v 0.719864 0.362693 -0.504254
v 0.719842 0.278863 -0.478994
v 0.719842 0.274656 -0.492162
v 0.797375 0.614089 -0.432872
v 0.719842 0.616920 -0.441732
v 0.719842 0.624495 -0.465444
v 0.797375 0.624495 -0.465444
v 0.719842 0.290768 -0.441732
v 0.797375 0.293599 -0.432872
v 0.797375 0.283193 -0.465444
v 0.719842 0.283193 -0.465444
v 0.797375 0.278863 -0.478994
v 0.802797 0.273643 -0.477325
v 0.802851 0.362692 -0.504252
v 0.797399 0.362693 -0.504254
v 0.802851 0.453844 -0.513229
v 0.797399 0.453844 -0.513232
v 0.802851 0.544995 -0.504252
v 0.797399 0.544994 -0.504254
v 0.802797 0.634045 -0.477325
v 0.797375 0.628824 -0.478994
v 0.719864 0.362693 -0.504254
v 0.714417 0.273642 -0.477327
v 0.719842 0.278863 -0.478994
v 0.714412 0.362693 -0.504257
v 0.719864 0.453844 -0.513232
v 0.714412 0.453844 -0.513235
v 0.719864 0.544994 -0.504254
v 0.714412 0.544994 -0.504257
v 0.719842 0.628824 -0.478994
v 0.714418 0.634046 -0.477327
v 0.797375 0.624495 -0.465444
v 0.802855 0.629661 -0.463792
v 0.802844 0.542207 -0.490238
v 0.797392 0.542207 -0.490240
v 0.802844 0.453844 -0.498940
v 0.797392 0.453844 -0.498943
v 0.802844 0.365480 -0.490238
v 0.797392 0.365480 -0.490240
v 0.802854 0.278027 -0.463792
v 0.797375 0.283193 -0.465444
v 0.719842 0.278863 -0.478994
v 0.714417 0.273642 -0.477327
v 0.802797 0.273643 -0.477325
v 0.797375 0.278863 -0.478994
v 0.719842 0.283193 -0.465444
v 0.714360 0.278026 -0.463795
v 0.714404 0.365481 -0.490242
v 0.719856 0.365480 -0.490240
v 0.714404 0.453844 -0.498946
v 0.719856 0.453844 -0.498943
v 0.714404 0.542207 -0.490242
v 0.719856 0.542207 -0.490240
v 0.714360 0.629662 -0.463795
v 0.719842 0.624495 -0.465444
v 0.797375 0.283193 -0.465444
v 0.802854 0.278027 -0.463792
v 0.714360 0.278026 -0.463795
v 0.719842 0.283193 -0.465444
v 0.714360 0.278026 -0.463795
v 0.802854 0.278027 -0.463792
v 0.802797 0.273643 -0.477325
v 0.714417 0.273642 -0.477327
v 0.714418 0.634046 -0.477327
v 0.802797 0.634045 -0.477325
v 0.802855 0.629661 -0.463792
v 0.714360 0.629662 -0.463795
v 0.802844 0.542207 -0.490238
v 0.802855 0.629661 -0.463792
v 0.802797 0.634045 -0.477325
v 0.802851 0.544995 -0.504252
v 0.802844 0.453844 -0.498940
v 0.802851 0.453844 -0.513229
v 0.802844 0.365480 -0.490238
v 0.802851 0.362692 -0.504252
v 0.802854 0.278027 -0.463792
v 0.802797 0.273643 -0.477325
v 0.714412 0.544994 -0.504257
v 0.714418 0.634046 -0.477327
v 0.714360 0.629662 -0.463795
v 0.714404 0.542207 -0.490242
v 0.714412 0.453844 -0.513235
v 0.714404 0.453844 -0.498946
v 0.714412 0.362693 -0.504257
v 0.714404 0.365481 -0.490242
v 0.714417 0.273642 -0.477327
v 0.714360 0.278026 -0.463795
v 0.797375 0.628824 -0.478994
v 0.802797 0.634045 -0.477325
v 0.714418 0.634046 -0.477327
v 0.719842 0.628824 -0.478994
v 0.719842 0.624495 -0.465444
v 0.714360 0.629662 -0.463795
v 0.802855 0.629661 -0.463792
v 0.797375 0.624495 -0.465444
v -0.719842 0.278863 -0.478994
v -0.719842 0.274656 -0.492162
v -0.746099 0.274656 -0.492162
v -0.797375 0.278863 -0.478994
v -0.771123 0.274656 -0.492162
v -0.797375 0.274656 -0.492162
v -0.797405 0.360002 -0.517781
v -0.797375 0.274656 -0.492162
v -0.771123 0.274656 -0.492162
v -0.771153 0.360002 -0.517781
v -0.797405 0.453844 -0.527024
v -0.771154 0.453844 -0.527024
v -0.797405 0.547685 -0.517781
v -0.771153 0.547685 -0.517781
v -0.797375 0.633031 -0.492162
v -0.771123 0.633031 -0.492162
v -0.746122 0.360002 -0.517781
v -0.746099 0.274656 -0.492162
v -0.719842 0.274656 -0.492162
v -0.719872 0.360002 -0.517781
v -0.746121 0.453844 -0.527024
v -0.719872 0.453844 -0.527024
v -0.746122 0.547685 -0.517781
v -0.719872 0.547685 -0.517781
v -0.746100 0.633031 -0.492162
v -0.719842 0.633031 -0.492162
v -0.797405 0.547685 -0.517781
v -0.797375 0.633031 -0.492162
v -0.797375 0.628824 -0.478994
v -0.797399 0.544994 -0.504254
v -0.797405 0.453844 -0.527024
v -0.797399 0.453844 -0.513232
v -0.797399 0.362693 -0.504254
v -0.797405 0.360002 -0.517781
v -0.797375 0.278863 -0.478994
v -0.797375 0.274656 -0.492162
v -0.719856 0.365480 -0.490240
v -0.719842 0.283193 -0.465444
v -0.719842 0.290768 -0.441732
v -0.719842 0.370329 -0.465866
v -0.719842 0.453844 -0.474092
v -0.719856 0.453844 -0.498943
v -0.719856 0.542207 -0.490240
v -0.719842 0.537359 -0.465866
v -0.719842 0.616920 -0.441732
v -0.719842 0.624495 -0.465444
v -0.719842 0.290768 -0.441732
v -0.797375 0.293599 -0.432872
v -0.797375 0.372151 -0.456701
v -0.719842 0.370329 -0.465866
v -0.719842 0.453844 -0.474092
v -0.797375 0.453844 -0.464747
v -0.797375 0.535535 -0.456701
v -0.719842 0.537359 -0.465866
v -0.719842 0.616920 -0.441732
v -0.797375 0.614089 -0.432872
v -0.771153 0.360002 -0.517781
v -0.771123 0.274656 -0.492162
v -0.771126 0.280946 -0.507109
v -0.771153 0.357568 -0.530110
v -0.771154 0.453844 -0.527024
v -0.771154 0.453844 -0.539592
v -0.771153 0.547685 -0.517781
v -0.771153 0.550119 -0.530110
v -0.771123 0.633031 -0.492162
v -0.771123 0.636627 -0.504142
v -0.746100 0.633031 -0.492162
v -0.771123 0.636627 -0.504142
v -0.746100 0.636627 -0.504142
v -0.771123 0.633031 -0.492162
v -0.719842 0.628824 -0.478994
v -0.719842 0.633031 -0.492162
v -0.797375 0.628824 -0.478994
v -0.797375 0.633031 -0.492162
v -0.746099 0.274656 -0.492162
v -0.746122 0.357568 -0.530110
v -0.746102 0.280946 -0.507109
v -0.746122 0.360002 -0.517781
v -0.746121 0.453844 -0.539592
v -0.746121 0.453844 -0.527024
v -0.746122 0.550119 -0.530110
v -0.746122 0.547685 -0.517781
v -0.746100 0.636627 -0.504142
v -0.746100 0.633031 -0.492162
v -0.771123 0.274656 -0.492162
v -0.746099 0.274656 -0.492162
v -0.746102 0.280946 -0.507109
v -0.771126 0.280946 -0.507109
v -0.746102 0.280946 -0.507109
v -0.771153 0.357568 -0.530110
v -0.771126 0.280946 -0.507109
v -0.746122 0.357568 -0.530110
v -0.746121 0.453844 -0.539592
v -0.771154 0.453844 -0.539592
v -0.771153 0.550119 -0.530110
v -0.746122 0.550119 -0.530110
v -0.771123 0.636627 -0.504142
v -0.746100 0.636627 -0.504142
v -0.797392 0.542207 -0.490240
v -0.797375 0.624495 -0.465444
v -0.797375 0.614089 -0.432872
v -0.797375 0.535535 -0.456701
v -0.797392 0.453844 -0.498943
v -0.797375 0.453844 -0.464747
v -0.797375 0.372151 -0.456701
v -0.797392 0.365480 -0.490240
v -0.797375 0.293599 -0.432872
v -0.797375 0.283193 -0.465444
v -0.719842 0.628824 -0.478994
v -0.719842 0.633031 -0.492162
v -0.719872 0.547685 -0.517781
v -0.719864 0.544994 -0.504254
v -0.719864 0.453844 -0.513232
v -0.719872 0.453844 -0.527024
v -0.719872 0.360002 -0.517781
v -0.719864 0.362693 -0.504254
v -0.719842 0.278863 -0.478994
v -0.719842 0.274656 -0.492162
v -0.797375 0.614089 -0.432872
v -0.797375 0.624495 -0.465444
v -0.719842 0.624495 -0.465444
v -0.719842 0.616920 -0.441732
v -0.719842 0.290768 -0.441732
v -0.719842 0.283193 -0.465444
v -0.797375 0.283193 -0.465444
v -0.797375 0.293599 -0.432872
v -0.797375 0.278863 -0.478994
v -0.802851 0.362692 -0.504252
v -0.802797 0.273643 -0.477325
v -0.797399 0.362693 -0.504254
v -0.802851 0.453844 -0.513229
v -0.797399 0.453844 -0.513232
v -0.802851 0.544995 -0.504252
v -0.797399 0.544994 -0.504254
v -0.802797 0.634045 -0.477325
v -0.797375 0.628824 -0.478994
v -0.719864 0.362693 -0.504254
v -0.719842 0.278863 -0.478994
v -0.714417 0.273642 -0.477327
v -0.714412 0.362693 -0.504257
v -0.719864 0.453844 -0.513232
v -0.714412 0.453844 -0.513235
v -0.719864 0.544994 -0.504254
v -0.714412 0.544994 -0.504257
v -0.719842 0.628824 -0.478994
v -0.714418 0.634046 -0.477327
v -0.797375 0.624495 -0.465444
v -0.802844 0.542207 -0.490238
v -0.802855 0.629661 -0.463792
v -0.797392 0.542207 -0.490240
v -0.802844 0.453844 -0.498940
v -0.797392 0.453844 -0.498943
v -0.802844 0.365480 -0.490238
v -0.797392 0.365480 -0.490240
v -0.802854 0.278027 -0.463792
v -0.797375 0.283193 -0.465444
v -0.719842 0.278863 -0.478994
v -0.797375 0.278863 -0.478994
v -0.802797 0.273643 -0.477325
v -0.714417 0.273642 -0.477327
v -0.719842 0.283193 -0.465444
v -0.714404 0.365481 -0.490242
v -0.714360 0.278026 -0.463795
v -0.719856 0.365480 -0.490240
v -0.714404 0.453844 -0.498946
v -0.719856 0.453844 -0.498943
v -0.714404 0.542207 -0.490242
v -0.719856 0.542207 -0.490240
v -0.714360 0.629662 -0.463795
v -0.719842 0.624495 -0.465444
v -0.797375 0.283193 -0.465444
v -0.719842 0.283193 -0.465444
v -0.714360 0.278026 -0.463795
v -0.802854 0.278027 -0.463792
v -0.714360 0.278026 -0.463795
v -0.714417 0.273642 -0.477327
v -0.802797 0.273643 -0.477325
v -0.802854 0.278027 -0.463792
v -0.714418 0.634046 -0.477327
v -0.714360 0.629662 -0.463795
v -0.802855 0.629661 -0.463792
v -0.802797 0.634045 -0.477325
v -0.802844 0.542207 -0.490238
v -0.802797 0.634045 -0.477325
v -0.802855 0.629661 -0.463792
v -0.802851 0.544995 -0.504252
v -0.802844 0.453844 -0.498940
v -0.802851 0.453844 -0.513229
v -0.802844 0.365480 -0.490238
v -0.802851 0.362692 -0.504252
v -0.802854 0.278027 -0.463792
v -0.802797 0.273643 -0.477325
v -0.714412 0.544994 -0.504257
v -0.714360 0.629662 -0.463795
v -0.714418 0.634046 -0.477327
v -0.714404 0.542207 -0.490242
v -0.714412 0.453844 -0.513235
v -0.714404 0.453844 -0.498946
v -0.714412 0.362693 -0.504257
v -0.714404 0.365481 -0.490242
v -0.714417 0.273642 -0.477327
v -0.714360 0.278026 -0.463795
v -0.797375 0.628824 -0.478994
v -0.719842 0.628824 -0.478994
v -0.714418 0.634046 -0.477327
v -0.802797 0.634045 -0.477325
v -0.719842 0.624495 -0.465444
v -0.797375 0.624495 -0.465444
v -0.802855 0.629661 -0.463792
v -0.714360 0.629662 -0.463795
vn -0.0000 0.9543 0.2987
vn -0.0000 0.9526 0.3043
vn -0.0000 -0.9526 0.3043
vn -0.0000 -0.9513 0.3082
vn -0.0000 0.1937 -0.9811
vn -0.0000 -0.0000 -1.0000
vn -0.0000 -0.1937 -0.9811
vn -0.0000 -0.2875 -0.9578
vn -0.0000 0.2875 -0.9578
vn -1.0000 -0.0001 0.0004
vn -1.0000 -0.0002 0.0003
vn -1.0000 -0.0004 -0.0000
vn -1.0000 0.0001 0.0007
vn 1.0000 0.0001 -0.0000
vn 1.0000 0.0003 -0.0001
vn -1.0000 -0.0000 -0.0006
vn -1.0000 -0.0001 -0.0005
vn 1.0000 -0.0000 0.0003
vn 1.0000 -0.0000 0.0004
vn 1.0000 0.0002 -0.0000
vn 1.0000 -0.0000 -0.0004
vn 1.0000 -0.0000 -0.0006
vn -1.0000 0.0003 -0.0014
vn 1.0000 -0.0000 -0.0003
vn 0.1197 0.1937 0.9737
vn 0.1191 0.2882 0.9501
vn 0.1197 -0.0000 0.9928
vn 0.1197 -0.1937 0.9737
vn 0.1191 -0.2882 0.9501
vn -1.0000 -0.0002 -0.0000
vn -1.0000 -0.0003 0.0001
vn 1.0000 -0.0000 -0.0000
vn -1.0000 0.0002 -0.0000
vn -1.0000 -0.0000 -0.0000
vn -1.0000 0.0001 0.0004
vn -1.0000 0.0002 0.0003
vn -0.0000 -0.3043 -0.9526
vn 1.0000 -0.0003 0.0001
vn 1.0000 -0.0002 -0.0000
vn -1.0000 -0.0001 -0.0000
vn 1.0000 -0.0001 -0.0000
vn -1.0000 0.0003 0.0001
vn -0.0000 -0.9217 -0.3879
vn -0.0005 -0.0000 1.0000
vn 0.0036 0.1944 0.9809
vn -1.0000 -0.0002 0.0006
vn -1.0000 -0.0000 0.0003
vn -1.0000 -0.0000 0.0004
vn -1.0000 -0.0000 0.0005
vn 1.0000 -0.0001 -0.0005
vn 1.0000 -0.0002 -0.0003
vn 1.0000 -0.0001 -0.0008
vn 1.0000 0.0001 -0.0005
vn -1.0000 0.0005 -0.0023
vn -0.0044 -0.1944 -0.9809
vn -0.0084 -0.2890 -0.9573
vn -0.0044 0.1944 0.9809
vn -0.0004 -0.0000 1.0000
vn -0.0084 0.2890 -0.9573
vn -0.0044 0.1944 -0.9809
vn 0.0036 -0.1944 -0.9809
vn 0.0077 -0.2890 -0.9573
vn -0.0005 -0.0000 -1.0000
vn -0.0004 -0.0000 -1.0000
vn 0.0077 0.2890 -0.9573
vn 0.0036 0.1944 -0.9809
vn 0.0044 -0.1944 0.9809
vn 0.0083 -0.2890 0.9573
vn 0.0004 -0.0000 1.0000
vn 0.0044 0.1944 0.9809
vn -0.0044 -0.1944 0.9809
vn -0.0083 -0.2890 0.9573
vn -0.0036 0.1944 0.9809
vn -0.0076 0.2890 0.9573
vn 0.0005 -0.0000 1.0000
vn -0.0076 -0.2890 0.9573
vn -0.0035 -0.1944 0.9809
vn -0.0000 -0.3040 0.9527
vn -0.0000 -0.3043 0.9526
vn -0.0000 0.9513 0.3082
vn -1.0000 0.0007 -0.0016
vn -1.0000 0.0003 -0.0006
vn -1.0000 -0.0003 -0.0006
vn -1.0000 -0.0007 -0.0016
vn 1.0000 0.0005 -0.0023
vn 1.0000 0.0003 -0.0014
vn 1.0000 -0.0003 -0.0014
vn 1.0000 0.0003 -0.0006
vn 1.0000 0.0007 -0.0016
vn -0.0000 0.3043 0.9526
vn -0.0000 0.3040 0.9527
vn 1.0000 0.0002 0.0003
vn 1.0000 0.0001 0.0004
vn 1.0000 -0.0000 0.0005
vn 1.0000 -0.0001 0.0004
vn 1.0000 0.0001 0.0007
vn 1.0000 -0.0002 0.0003
vn 1.0000 -0.0004 -0.0000
vn -1.0000 -0.0000 -0.0003
vn -1.0000 -0.0000 -0.0004
vn -0.1197 0.1937 0.9737
vn -0.1197 -0.0000 0.9928
vn -0.1197 -0.1937 0.9737
vn 1.0000 -0.0002 -0.0001
vn -0.1191 0.2882 0.9501
vn 0.0082 0.2890 0.9573
vn 1.0000 0.0003 0.0001
vn -0.0000 0.9578 0.2875
vn -1.0000 0.0001 -0.0000
vn -1.0000 0.0003 -0.0001
vn 1.0000 -0.0003 -0.0006
vn -1.0000 -0.0002 -0.0001
vn -1.0000 -0.0003 -0.0014
vn -1.0000 -0.0002 -0.0003
vn 1.0000 0.0002 -0.0003
vn -1.0000 0.0002 -0.0003
vn -1.0000 0.0001 -0.0005
vn -0.0036 0.1944 -0.9809
vn -0.0077 0.2890 -0.9573
vn 0.0004 -0.0000 -1.0000
vn 0.0044 -0.1944 -0.9809
vn 0.0044 0.1944 -0.9809
vn 0.0084 -0.2890 -0.9573
vn 0.0005 -0.0000 -1.0000
vn -0.0077 -0.2890 -0.9573
vn -0.0036 -0.1944 -0.9809
vn 0.0076 -0.2890 0.9573
vn 0.0035 -0.1944 0.9809
vn -0.0082 0.2890 0.9573
vn -0.0000 0.3043 -0.9526
vn 0.0084 0.2890 -0.9573
vn 0.0076 0.2890 0.9573
vn -0.0000 0.3046 0.9525
vn -0.1191 -0.2882 0.9501
vn 1.0000 -0.0007 -0.0016
vn 1.0000 -0.0005 -0.0023
vn -1.0000 -0.0005 -0.0023
vn -0.0000 -0.3046 0.9525
vt 0.665527 0.967773
vt 0.665039 0.965332
vt 0.663574 0.965332
vt 0.663574 0.973633
vt 0.704102 0.964355
vt 0.702637 0.964844
vt 0.702637 0.967773
vt 0.703125 0.971191
vt 0.705566 0.974609
vt 0.704590 0.963867
vt 0.706543 0.963867
vt 0.707520 0.974121
vt 0.674316 0.974609
vt 0.683594 0.975098
vt 0.683594 0.972656
vt 0.674316 0.972168
vt 0.683594 0.967773
vt 0.693359 0.967285
vt 0.693359 0.964844
vt 0.683594 0.964844
vt 0.674316 0.971191
vt 0.666016 0.970703
vt 0.666016 0.968750
vt 0.674316 0.968750
vt 0.693848 0.975098
vt 0.693359 0.972168
vt 0.693359 0.968750
vt 0.683594 0.968750
vt 0.683594 0.971191
vt 0.693359 0.971191
vt 0.665039 0.973633
vt 0.665039 0.971191
vt 0.702637 0.962891
vt 0.693359 0.963379
vt 0.701660 0.970703
vt 0.683594 0.976562
vt 0.673828 0.976074
vt 0.665527 0.957031
vt 0.674805 0.957520
vt 0.674316 0.960938
vt 0.665527 0.960449
vt 0.657715 0.973633
vt 0.660645 0.973633
vt 0.661133 0.964844
vt 0.657227 0.964844
vt 0.673828 0.981445
vt 0.683594 0.981934
vt 0.683594 0.979004
vt 0.673828 0.979004
vt 0.683594 0.977051
vt 0.683594 0.978516
vt 0.673828 0.978027
vt 0.673828 0.976562
vt 0.693848 0.981934
vt 0.704102 0.981934
vt 0.704102 0.979004
vt 0.693848 0.979004
vt 0.692383 0.954102
vt 0.692871 0.957031
vt 0.702148 0.956055
vt 0.701172 0.953125
vt 0.683594 0.957520
vt 0.683594 0.954102
vt 0.674805 0.954102
vt 0.666016 0.953613
vt 0.701172 0.968262
vt 0.674316 0.967285
vt 0.674316 0.963379
vt 0.665039 0.963379
vt 0.674316 0.964844
vt 0.705078 0.973633
vt 0.703613 0.974121
vt 0.693848 0.978516
vt 0.683594 0.960938
vt 0.692871 0.960938
vt 0.702148 0.959961
vt 0.665039 0.975586
vt 0.693848 0.976562
vt 0.664551 0.978516
vt 0.664551 0.980957
vt 0.711426 0.963867
vt 0.707031 0.964355
vt 0.708008 0.973633
vt 0.710938 0.973145
vt 0.664062 0.977539
vt 0.664062 0.976074
vt 0.693359 0.962891
vt 0.703125 0.962402
vt 0.692871 0.961426
vt 0.683594 0.961426
vt 0.664551 0.962891
vt 0.674316 0.962891
vt 0.693848 0.977051
vt 0.704590 0.976562
vt 0.703613 0.975586
vt 0.683594 0.962891
vt 0.683594 0.963379
vt 0.674316 0.961426
vt 0.664551 0.961426
vt 0.704590 0.978516
vt 0.661133 0.974121
vt 0.661621 0.964355
vt 0.663086 0.964355
vt 0.663086 0.974121
vt 0.703125 0.960938
s 1
f 280/1/1 284/2/2 283/3/2 281/4/2
f 214/5/3 216/6/3 215/7/3 213/8/3
f 178/9/4 177/10/4 176/11/4 175/12/4
f 234/13/5 232/14/6 231/15/6 233/16/5
f 222/17/6 220/18/7 217/19/7 221/20/6
f 220/18/7 219/7/8 218/6/8 217/19/7
f 96/21/5 98/22/9 97/23/9 95/24/5
f 232/14/6 230/25/7 227/26/7 231/15/6
f 300/27/7 304/28/6 303/29/6 302/30/7
f 236/31/9 234/13/5 233/16/5 235/32/9
f 244/19/10 246/6/11 245/33/12 243/34/13
f 286/30/14 288/26/14 285/8/15 287/35/15
f 114/14/16 113/36/16 112/37/17 110/13/17
f 100/38/18 102/39/19 99/40/19 101/41/20
f 332/42/2 331/43/2 330/44/2 329/45/2
f 254/46/21 251/47/22 252/48/22 253/49/21
f 197/50/16 198/51/16 196/52/23 193/53/23
f 250/54/21 249/55/24 248/56/24 247/57/21
f 260/58/25 259/59/25 258/60/26 257/61/26
f 262/62/27 259/59/25 260/58/25 261/63/27
f 264/64/28 263/39/28 262/62/27 261/63/27
f 265/65/29 266/38/29 263/39/28 264/64/28
f 270/27/30 269/66/31 268/7/31 267/18/30
f 289/29/32 290/15/32 288/26/14 286/30/14
f 274/24/33 272/28/34 271/17/34 273/67/33
f 240/68/35 239/69/36 238/2/36 237/70/35
f 20/25/7 22/14/6 21/15/6 17/26/7
f 281/4/2 282/31/2 277/32/1 280/1/1
f 160/5/37 159/10/37 158/9/37 157/71/37
f 58/66/38 60/27/39 57/18/39 59/7/38
f 82/16/40 81/21/40 79/29/34 80/15/34
f 291/21/41 292/16/41 290/15/32 289/29/32
f 276/23/42 274/24/33 273/67/33 275/1/42
f 298/66/43 297/35/43 296/8/43 295/7/43
f 230/25/7 229/72/8 228/8/8 227/26/7
f 305/24/5 306/21/5 303/29/6 304/28/6
f 166/48/44 165/51/44 163/73/45 164/57/45
f 308/22/9 306/21/5 305/24/5 307/23/9
f 312/39/46 311/38/47 310/41/33 309/40/48
f 314/62/49 312/39/46 309/40/48 313/74/49
f 313/74/49 316/75/48 315/59/48 314/62/49
f 316/75/48 318/76/47 317/60/47 315/59/48
f 322/37/50 321/13/50 320/31/51 319/77/51
f 323/36/22 324/14/22 321/13/50 322/37/50
f 326/78/52 325/25/53 324/14/22 323/36/22
f 253/49/21 256/79/38 255/80/39 254/46/21
f 336/81/3 335/82/3 334/83/3 333/84/3
f 196/52/23 195/85/54 194/86/54 193/53/23
f 338/87/55 340/34/55 337/33/56 339/88/56
f 154/75/57 153/89/57 151/90/58 152/74/58
f 88/8/43 87/35/43 86/66/43 85/7/43
f 345/91/59 346/69/59 344/68/60 343/92/60
f 350/93/61 349/94/62 348/95/62 347/78/61
f 352/50/63 350/93/61 347/78/61 351/36/63
f 341/96/64 342/97/64 340/34/55 338/87/55
f 356/86/65 354/53/66 353/37/66 355/77/65
f 358/98/67 360/40/67 357/41/68 359/99/68
f 361/90/69 362/74/69 360/40/67 358/98/67
f 363/89/70 364/75/70 362/74/69 361/90/69
f 150/40/71 149/98/71 148/99/72 147/41/72
f 370/9/37 369/10/37 368/5/37 367/71/37
f 372/73/73 374/57/73 371/56/74 373/100/74
f 375/51/75 376/48/75 374/57/73 372/73/73
f 354/53/66 352/50/63 351/36/63 353/37/66
f 379/85/76 380/79/76 378/49/77 377/52/77
f 420/101/78 419/102/79 418/44/79 417/43/79
f 388/11/4 387/10/4 386/9/4 385/12/4
f 392/103/80 391/102/80 390/101/80 389/104/80
f 394/91/81 396/92/82 393/98/82 395/99/81
f 396/92/82 398/96/49 397/90/49 393/98/82
f 400/87/83 399/89/83 397/90/49 398/96/49
f 402/88/84 401/105/84 399/89/83 400/87/83
f 404/85/85 406/52/86 403/53/86 405/86/85
f 408/51/22 407/50/22 403/53/86 406/52/86
f 408/51/22 410/73/87 409/93/87 407/50/22
f 186/92/88 185/91/89 184/99/89 183/98/88
f 384/11/90 383/12/90 382/83/90 381/82/91
f 72/31/2 71/4/2 70/1/1 67/32/1
f 2/8/3 4/5/3 1/71/3 3/72/3
f 8/7/8 10/18/7 7/19/7 9/6/8
f 10/18/7 12/17/6 11/20/6 7/19/7
f 12/17/6 14/67/5 13/70/5 11/20/6
f 14/67/5 16/1/9 15/2/9 13/70/5
f 18/72/8 20/25/7 17/26/7 19/8/8
f 224/67/5 222/17/6 221/20/6 223/70/5
f 22/14/6 24/13/5 23/16/5 21/15/6
f 300/27/7 302/30/7 299/35/8 301/66/8
f 28/69/92 30/68/93 27/70/93 29/2/92
f 30/68/93 32/97/94 31/20/94 27/70/93
f 34/19/95 31/20/94 32/97/94 33/34/96
f 36/6/97 34/19/95 33/34/96 35/33/98
f 38/55/99 40/54/100 37/57/100 39/56/99
f 42/48/16 37/57/100 40/54/100 41/47/16
f 41/47/16 44/46/100 43/49/100 42/48/16
f 46/79/31 43/49/100 44/46/100 45/80/30
f 48/59/101 52/62/102 51/63/102 50/58/101
f 53/39/103 54/64/103 51/63/102 52/62/102
f 293/22/104 294/32/104 292/16/41 291/21/41
f 48/59/101 50/58/101 47/61/105 49/60/105
f 365/105/106 366/76/106 364/75/70 363/89/70
f 60/27/39 62/28/32 61/17/32 57/18/39
f 272/28/34 270/27/30 267/18/30 271/17/34
f 64/24/20 66/23/107 65/1/107 63/67/20
f 70/1/1 69/23/108 68/22/108 67/32/1
f 6/6/3 4/5/3 2/8/3 5/7/3
f 74/2/2 70/1/1 71/4/2 73/3/2
f 78/26/109 77/30/109 76/35/110 75/8/110
f 80/15/34 79/29/34 77/30/109 78/26/109
f 189/89/111 190/87/111 188/96/94 187/90/94
f 84/32/112 83/22/112 81/21/40 82/16/40
f 24/13/5 26/31/9 25/32/9 23/16/5
f 92/30/7 91/27/7 90/66/8 89/35/8
f 94/28/6 91/27/7 92/30/7 93/29/6
f 96/21/5 95/24/5 94/28/6 93/29/6
f 226/1/9 224/67/5 223/70/5 225/2/9
f 108/76/39 106/75/19 105/59/19 107/60/18
f 242/97/49 240/68/35 237/70/35 241/20/49
f 200/73/113 198/51/16 197/50/16 199/93/113
f 110/13/17 112/37/17 109/77/114 111/31/114
f 327/95/115 328/72/115 325/25/53 326/78/52
f 247/57/21 252/48/22 251/47/22 250/54/21
f 102/39/19 104/62/94 103/74/94 99/40/19
f 118/72/116 117/95/116 116/78/117 115/25/117
f 122/44/2 121/43/2 120/42/2 119/45/2
f 126/83/3 125/82/3 124/81/3 123/84/3
f 144/53/118 146/86/119 145/77/119 143/37/118
f 132/97/120 131/96/120 129/87/121 130/34/121
f 134/68/122 133/92/122 131/96/120 132/97/120
f 130/34/121 129/87/121 128/88/123 127/33/123
f 211/71/3 214/5/3 213/8/3 212/72/3
f 377/52/77 378/49/77 376/48/75 375/51/75
f 142/50/124 144/53/118 143/37/118 141/36/124
f 138/94/125 140/93/126 137/78/126 139/95/125
f 170/79/127 169/85/127 167/52/128 168/49/128
f 343/92/60 344/68/60 342/97/64 341/96/64
f 152/74/58 151/90/58 149/98/71 150/40/71
f 156/76/129 155/105/129 153/89/57 154/75/57
f 416/103/130 415/104/130 414/4/130 413/3/130
f 136/69/131 135/91/131 133/92/122 134/68/122
f 140/93/126 142/50/124 141/36/124 137/78/126
f 168/49/128 167/52/128 165/51/44 166/48/44
f 164/57/45 163/73/45 162/100/132 161/56/132
f 174/83/90 173/12/90 172/11/90 171/82/133
f 182/101/80 181/102/80 180/103/80 179/104/80
f 56/38/134 55/65/134 54/64/103 53/39/103
f 191/105/135 192/88/135 190/87/111 189/89/111
f 115/25/117 116/78/117 113/36/16 114/14/16
f 106/75/19 103/74/94 104/62/94 105/59/19
f 62/28/32 64/24/20 63/67/20 61/17/32
f 412/100/136 411/94/136 409/93/87 410/73/87
f 188/96/94 186/92/88 183/98/88 187/90/94
f 241/20/49 244/19/10 243/34/13 242/97/49
f 201/94/137 202/100/137 200/73/113 199/93/113
f 206/4/130 205/104/130 204/103/130 203/3/130
f 210/44/138 209/102/79 208/101/78 207/43/79
f 278/23/108 280/1/1 277/32/1 279/22/108
