# Blender 4.5.1 LTS
# www.blender.org
o craneflat_bufferstems
v 0.688958 0.955026 -6.550848
v 0.688958 0.955026 -6.531508
v 1.044408 0.955025 -6.531507
v 1.044408 0.955026 -6.550847
v 1.044408 0.955026 -6.550847
v 1.044408 0.955025 -6.531507
v 1.063500 0.974118 -6.531508
v 1.063500 0.974118 -6.550847
v 0.669866 1.126876 -6.550848
v 0.669866 1.126876 -6.531508
v 0.669866 0.974118 -6.531508
v 0.669866 0.974118 -6.550848
v 0.688958 0.955026 -6.550848
v 0.669866 1.126876 -6.550848
v 0.669866 0.974118 -6.550848
v 0.688958 1.145968 -6.550848
v 1.044408 1.145968 -6.550847
v 1.044408 0.955026 -6.550847
v 1.063500 0.974118 -6.550847
v 1.063500 1.126876 -6.550847
v 0.688958 1.145968 -6.531508
v 0.688958 1.145968 -6.550848
v 1.044408 1.145968 -6.550847
v 1.044408 1.145968 -6.531507
v 0.669866 1.126876 -6.531508
v 0.669866 1.126876 -6.550848
v 0.688958 1.145968 -6.550848
v 0.688958 1.145968 -6.531508
v 1.063500 0.974118 -6.550847
v 1.063500 0.974118 -6.531508
v 1.063500 1.126876 -6.531508
v 1.063500 1.126876 -6.550847
v 1.044408 1.145968 -6.531507
v 1.044408 1.145968 -6.550847
v 1.063500 1.126876 -6.550847
v 1.063500 1.126876 -6.531508
v 0.688958 0.955026 -6.531508
v 0.688958 0.955026 -6.550848
v 0.669866 0.974118 -6.550848
v 0.669866 0.974118 -6.531508
v -1.042324 0.955025 -6.550847
v -1.042324 0.955025 -6.531507
v -0.686874 0.955025 -6.531507
v -0.686874 0.955025 -6.550846
v -1.042324 0.955025 -6.550847
v -1.061416 1.126875 -6.550847
v -1.061416 0.974118 -6.550847
v -1.042324 1.145968 -6.550847
v -0.686875 1.145968 -6.550846
v -0.686874 0.955025 -6.550846
v -0.667782 0.974118 -6.550846
v -0.667782 1.126875 -6.550846
v -0.686874 0.955025 -6.550846
v -0.686874 0.955025 -6.531507
v -0.667782 0.974117 -6.531507
v -0.667782 0.974118 -6.550846
v -1.061416 1.126875 -6.550847
v -1.061416 1.126875 -6.531507
v -1.061416 0.974118 -6.531507
v -1.061416 0.974118 -6.550847
v -1.042324 1.145967 -6.531507
v -1.042324 1.145968 -6.550847
v -0.686875 1.145968 -6.550846
v -0.686875 1.145967 -6.531507
v -1.061416 1.126875 -6.531507
v -1.061416 1.126875 -6.550847
v -1.042324 1.145968 -6.550847
v -1.042324 1.145967 -6.531507
v -0.667782 0.974118 -6.550846
v -0.667782 0.974117 -6.531507
v -0.667782 1.126875 -6.531507
v -0.667782 1.126875 -6.550846
v -0.686875 1.145967 -6.531507
v -0.686875 1.145968 -6.550846
v -0.667782 1.126875 -6.550846
v -0.667782 1.126875 -6.531507
v -1.042324 0.955025 -6.531507
v -1.042324 0.955025 -6.550847
v -1.061416 0.974118 -6.550847
v -1.061416 0.974118 -6.531507
v 0.888329 0.962345 -6.537761
v 0.843292 0.962355 -6.902188
v 0.844552 0.962345 -6.537761
v 0.888509 0.962355 -6.902190
v 0.922195 0.976669 -6.537761
v 0.922469 0.976719 -6.902190
v 0.942431 0.997517 -6.537761
v 0.941821 0.996693 -6.902189
v 0.956334 1.031804 -6.537761
v 0.955875 1.031351 -6.902189
v 0.956334 1.069419 -6.537761
v 0.955875 1.069485 -6.902189
v 0.942431 1.103706 -6.537761
v 0.941821 1.104144 -6.902189
v 0.922195 1.124554 -6.537761
v 0.922470 1.124117 -6.902190
v 0.888329 1.138879 -6.537761
v 0.888509 1.138482 -6.902190
v 0.843292 1.138482 -6.902188
v 0.844553 1.138879 -6.537761
v 0.810687 1.124554 -6.537761
v 0.809332 1.124117 -6.902188
v 0.790451 1.103706 -6.537761
v 0.789980 1.104143 -6.902188
v 0.776548 1.069419 -6.537761
v 0.775926 1.069485 -6.902188
v 0.776548 1.031804 -6.537761
v 0.775926 1.031352 -6.902188
v 0.790451 0.997517 -6.537761
v 0.789980 0.996694 -6.902188
v 0.810687 0.976669 -6.537761
v 0.809332 0.976719 -6.902188
v 0.843292 0.962355 -6.902188
v 0.844552 0.962345 -6.537761
v -0.920441 0.976670 -6.537762
v -0.886575 0.962345 -6.537762
v -0.886753 0.962355 -6.902190
v -0.920714 0.976720 -6.902190
v -0.940676 0.997518 -6.537763
v -0.940066 0.996694 -6.902190
v -0.954580 1.031805 -6.537763
v -0.954120 1.031352 -6.902190
v -0.954580 1.069419 -6.537763
v -0.954120 1.069486 -6.902190
v -0.940676 1.103706 -6.537763
v -0.940066 1.104144 -6.902190
v -0.920441 1.124555 -6.537762
v -0.920714 1.124118 -6.902190
v -0.886575 1.138879 -6.537762
v -0.886754 1.138482 -6.902190
v -0.841537 1.138482 -6.902189
v -0.842798 1.138879 -6.537761
v -0.808932 1.124555 -6.537761
v -0.807576 1.124118 -6.902189
v -0.788697 1.103706 -6.537761
v -0.788225 1.104143 -6.902189
v -0.774793 1.069419 -6.537761
v -0.774171 1.069485 -6.902189
v -0.774793 1.031805 -6.537761
v -0.774171 1.031352 -6.902189
v -0.788697 0.997518 -6.537761
v -0.788225 0.996694 -6.902189
v -0.808932 0.976669 -6.537762
v -0.807576 0.976720 -6.902189
v -0.841537 0.962355 -6.902189
v -0.842798 0.962345 -6.537762
v -0.886575 0.962345 -6.537762
v -0.886753 0.962355 -6.902190
v 0.688958 0.955025 6.550848
v 1.044408 0.955025 6.550847
v 1.044408 0.955025 6.531507
v 0.688958 0.955025 6.531508
v 1.044408 0.955025 6.550847
v 1.063500 0.974117 6.550847
v 1.063500 0.974117 6.531508
v 1.044408 0.955025 6.531507
v 0.669866 1.126875 6.550848
v 0.669866 0.974117 6.550848
v 0.669866 0.974117 6.531508
v 0.669866 1.126875 6.531508
v 0.688958 0.955025 6.550848
v 0.669866 0.974117 6.550848
v 0.669866 1.126875 6.550848
v 0.688958 1.145967 6.550848
v 1.044408 1.145967 6.550847
v 1.044408 0.955025 6.550847
v 1.063500 0.974117 6.550847
v 1.063500 1.126875 6.550847
v 0.688958 1.145967 6.531508
v 1.044408 1.145967 6.531507
v 1.044408 1.145967 6.550847
v 0.688958 1.145967 6.550848
v 0.669866 1.126875 6.531508
v 0.688958 1.145967 6.531508
v 0.688958 1.145967 6.550848
v 0.669866 1.126875 6.550848
v 1.063500 0.974117 6.550847
v 1.063500 1.126875 6.550847
v 1.063500 1.126875 6.531508
v 1.063500 0.974117 6.531508
v 1.044408 1.145967 6.531507
v 1.063500 1.126875 6.531508
v 1.063500 1.126875 6.550847
v 1.044408 1.145967 6.550847
v 0.688958 0.955025 6.531508
v 0.669866 0.974117 6.531508
v 0.669866 0.974117 6.550848
v 0.688958 0.955025 6.550848
v -1.042324 0.955024 6.550847
v -0.686874 0.955024 6.550846
v -0.686874 0.955024 6.531507
v -1.042324 0.955024 6.531507
v -1.042324 0.955024 6.550847
v -1.061416 0.974117 6.550847
v -1.061416 1.126874 6.550847
v -1.042324 1.145967 6.550847
v -0.686875 1.145967 6.550846
v -0.686874 0.955024 6.550846
v -0.667782 0.974117 6.550846
v -0.667782 1.126874 6.550846
v -0.686874 0.955024 6.550846
v -0.667782 0.974117 6.550846
v -0.667782 0.974117 6.531507
v -0.686874 0.955024 6.531507
v -1.061416 1.126874 6.550847
v -1.061416 0.974117 6.550847
v -1.061416 0.974117 6.531507
v -1.061416 1.126874 6.531507
v -1.042324 1.145966 6.531507
v -0.686875 1.145966 6.531507
v -0.686875 1.145967 6.550846
v -1.042324 1.145967 6.550847
v -1.061416 1.126874 6.531507
v -1.042324 1.145966 6.531507
v -1.042324 1.145967 6.550847
v -1.061416 1.126874 6.550847
v -0.667782 0.974117 6.550846
v -0.667782 1.126874 6.550846
v -0.667782 1.126874 6.531507
v -0.667782 0.974117 6.531507
v -0.686875 1.145966 6.531507
v -0.667782 1.126874 6.531507
v -0.667782 1.126874 6.550846
v -0.686875 1.145967 6.550846
v -1.042324 0.955024 6.531507
v -1.061416 0.974117 6.531507
v -1.061416 0.974117 6.550847
v -1.042324 0.955024 6.550847
v 0.888329 0.962344 6.537761
v 0.844552 0.962344 6.537761
v 0.843292 0.962354 6.902188
v 0.888509 0.962354 6.902190
v 0.922195 0.976668 6.537761
v 0.922469 0.976718 6.902190
v 0.942431 0.997516 6.537761
v 0.941821 0.996692 6.902189
v 0.956334 1.031803 6.537761
v 0.955875 1.031350 6.902189
v 0.956334 1.069418 6.537761
v 0.955875 1.069484 6.902189
v 0.942431 1.103705 6.537761
v 0.941821 1.104143 6.902189
v 0.922195 1.124553 6.537761
v 0.922470 1.124116 6.902190
v 0.888329 1.138878 6.537761
v 0.888509 1.138481 6.902190
v 0.843292 1.138481 6.902188
v 0.844553 1.138878 6.537761
v 0.810687 1.124553 6.537761
v 0.809332 1.124117 6.902188
v 0.790451 1.103705 6.537761
v 0.789980 1.104142 6.902188
v 0.776548 1.069418 6.537761
v 0.775926 1.069484 6.902188
v 0.776548 1.031803 6.537761
v 0.775926 1.031351 6.902188
v 0.790451 0.997517 6.537761
v 0.789980 0.996693 6.902188
v 0.810687 0.976668 6.537761
v 0.809332 0.976718 6.902188
v 0.843292 0.962354 6.902188
v 0.844552 0.962344 6.537761
v -0.808932 0.976669 6.537762
v -0.842798 0.962344 6.537762
v -0.841537 0.962354 6.902189
v -0.807576 0.976719 6.902189
v -0.788225 0.996693 6.902189
v -0.788697 0.997517 6.537761
v -0.774171 1.031351 6.902189
v -0.774793 1.031804 6.537761
v -0.774171 1.069484 6.902189
v -0.774793 1.069418 6.537761
v -0.788225 1.104142 6.902189
v -0.788697 1.103705 6.537761
v -0.807576 1.124117 6.902189
v -0.808932 1.124554 6.537761
v -0.841537 1.138481 6.902189
v -0.842798 1.138878 6.537761
v -0.886575 1.138878 6.537762
v -0.886754 1.138481 6.902190
v -0.920714 1.124117 6.902190
v -0.920441 1.124554 6.537762
v -0.940066 1.104143 6.902190
v -0.940676 1.103705 6.537763
v -0.954120 1.069485 6.902190
v -0.954580 1.069418 6.537763
v -0.954120 1.031351 6.902190
v -0.954580 1.031804 6.537763
v -0.940066 0.996693 6.902190
v -0.940676 0.997517 6.537763
v -0.920714 0.976719 6.902190
v -0.920441 0.976669 6.537762
v -0.886753 0.962354 6.902190
v -0.886575 0.962344 6.537762
v -0.841537 0.962354 6.902189
v -0.842798 0.962344 6.537762
vn -0.0000 -1.0000 -0.0000
vn 0.7071 -0.7071 -0.0000
vn -1.0000 -0.0000 -0.0000
vn -0.0000 -0.0000 -1.0000
vn -0.0000 1.0000 -0.0000
vn -0.7071 0.7071 -0.0000
vn 1.0000 -0.0000 -0.0000
vn 0.7071 0.7071 -0.0000
vn -0.7071 -0.7071 -0.0000
vn 0.1987 -0.9801 0.0001
vn 0.1988 -0.9800 0.0001
vn 0.5649 -0.8251 0.0003
vn 0.5651 -0.8250 0.0003
vn 0.8379 -0.5458 -0.0001
vn 0.8376 -0.5463 -0.0001
vn 0.9815 -0.1913 -0.0010
vn 0.9815 -0.1916 -0.0010
vn 0.9815 0.1914 -0.0012
vn 0.9815 0.1915 -0.0012
vn 0.8379 0.5459 -0.0007
vn 0.8376 0.5462 -0.0007
vn 0.5649 0.8252 -0.0006
vn 0.5652 0.8250 -0.0006
vn 0.1987 0.9801 -0.0010
vn 0.1988 0.9800 -0.0010
vn -0.1992 0.9800 -0.0004
vn -0.1983 0.9801 -0.0004
vn -0.5646 0.8253 0.0011
vn -0.5654 0.8248 0.0011
vn -0.8378 0.5460 0.0018
vn -0.8377 0.5461 0.0018
vn -0.9815 0.1914 0.0017
vn -0.9815 -0.1913 0.0019
vn -0.9815 -0.1915 0.0019
vn -0.8378 -0.5459 0.0023
vn -0.8377 -0.5462 0.0023
vn -0.5647 -0.8253 0.0020
vn -0.5654 -0.8248 0.0020
vn -0.3896 -0.9210 0.0013
vn -0.5649 -0.8251 0.0003
vn -0.3896 -0.9210 0.0002
vn -0.5651 -0.8250 0.0003
vn -0.8379 -0.5458 -0.0002
vn -0.8376 -0.5463 -0.0001
vn -0.9815 -0.1913 -0.0010
vn -0.9815 -0.1916 -0.0010
vn -0.9815 0.1914 -0.0012
vn -0.9815 0.1915 -0.0012
vn -0.8379 0.5459 -0.0007
vn -0.8376 0.5462 -0.0007
vn -0.5649 0.8252 -0.0006
vn -0.5652 0.8250 -0.0006
vn -0.1987 0.9801 -0.0010
vn -0.1988 0.9800 -0.0010
vn 0.1992 0.9800 -0.0004
vn 0.1983 0.9801 -0.0004
vn 0.5646 0.8253 0.0011
vn 0.5654 0.8248 0.0011
vn 0.8378 0.5460 0.0018
vn 0.8377 0.5461 0.0018
vn 0.9815 0.1914 0.0017
vn 0.9815 -0.1913 0.0019
vn 0.9815 -0.1915 0.0019
vn 0.8378 -0.5459 0.0023
vn 0.8377 -0.5462 0.0023
vn 0.5647 -0.8253 0.0020
vn 0.5653 -0.8249 0.0020
vn 0.1992 -0.9800 0.0007
vn 0.1983 -0.9801 0.0007
vn -0.0000 -0.0000 1.0000
vn 0.1987 -0.9801 -0.0001
vn 0.1988 -0.9800 -0.0001
vn 0.5649 -0.8251 -0.0003
vn 0.5651 -0.8250 -0.0003
vn 0.8379 -0.5458 0.0001
vn 0.8376 -0.5463 0.0001
vn 0.9815 -0.1913 0.0010
vn 0.9815 -0.1916 0.0010
vn 0.9815 0.1914 0.0012
vn 0.9815 0.1915 0.0012
vn 0.8379 0.5459 0.0007
vn 0.8376 0.5462 0.0007
vn 0.5649 0.8252 0.0006
vn 0.5652 0.8250 0.0006
vn 0.1987 0.9801 0.0010
vn 0.1988 0.9800 0.0010
vn -0.1992 0.9800 0.0004
vn -0.1983 0.9801 0.0004
vn -0.5646 0.8253 -0.0011
vn -0.5654 0.8248 -0.0011
vn -0.8378 0.5460 -0.0018
vn -0.8377 0.5461 -0.0018
vn -0.9815 0.1914 -0.0017
vn -0.9815 -0.1913 -0.0019
vn -0.9815 -0.1915 -0.0019
vn -0.8378 -0.5459 -0.0023
vn -0.8377 -0.5462 -0.0023
vn -0.5647 -0.8253 -0.0020
vn -0.5653 -0.8248 -0.0020
vn -0.3896 -0.9210 -0.0013
vn 0.5647 -0.8253 -0.0020
vn 0.3896 -0.9210 -0.0013
vn 0.5653 -0.8249 -0.0020
vn 0.8377 -0.5462 -0.0023
vn 0.8378 -0.5459 -0.0023
vn 0.9815 -0.1915 -0.0019
vn 0.9815 -0.1913 -0.0019
vn 0.9815 0.1914 -0.0017
vn 0.8377 0.5461 -0.0018
vn 0.8378 0.5460 -0.0018
vn 0.5654 0.8248 -0.0011
vn 0.5646 0.8253 -0.0011
vn 0.1992 0.9800 0.0004
vn 0.1983 0.9801 0.0004
vn -0.1987 0.9801 0.0010
vn -0.1988 0.9800 0.0010
vn -0.5652 0.8250 0.0006
vn -0.5649 0.8252 0.0006
vn -0.8376 0.5462 0.0007
vn -0.8379 0.5459 0.0007
vn -0.9815 0.1915 0.0012
vn -0.9815 0.1914 0.0012
vn -0.9815 -0.1916 0.0010
vn -0.9815 -0.1913 0.0010
vn -0.8376 -0.5463 0.0001
vn -0.8379 -0.5458 0.0002
vn -0.5651 -0.8250 -0.0003
vn -0.5649 -0.8251 -0.0003
vn -0.1988 -0.9800 -0.0001
vn -0.1987 -0.9801 -0.0001
vt 0.758897 0.912677
vt 0.760458 0.914238
vt 0.758280 0.916436
vt 0.756699 0.914865
vt 0.770970 0.595899
vt 0.773158 0.598087
vt 0.774719 0.596515
vt 0.772542 0.594328
vt 0.758897 0.895175
vt 0.761104 0.895175
vt 0.761104 0.912677
vt 0.772542 0.553585
vt 0.794419 0.553585
vt 0.792232 0.551417
vt 0.774719 0.551417
vt 0.794419 0.594328
vt 0.792232 0.596515
vt 0.796627 0.594328
vt 0.796627 0.553585
vt 0.795981 0.552044
vt 0.793793 0.549846
vt 0.756699 0.892977
vt 0.715966 0.914865
vt 0.715966 0.892977
vt 0.793793 0.598087
vt 0.795981 0.595899
vt 0.773158 0.549846
vt 0.770970 0.552044
vt 0.922974 0.086482
vt 0.922974 0.127215
vt 0.925172 0.127215
vt 0.925172 0.086482
vt 0.598256 0.458140
vt 0.598256 0.480017
vt 0.596068 0.477840
vt 0.596068 0.460337
vt 0.901076 0.086482
vt 0.901076 0.127215
vt 0.903264 0.129403
vt 0.920786 0.129403
vt 0.899525 0.128786
vt 0.901703 0.130984
vt 0.920786 0.082087
vt 0.903264 0.082087
vt 0.903264 0.084295
vt 0.920786 0.084295
vt 0.756699 0.917082
vt 0.715966 0.917082
vt 0.924526 0.084921
vt 0.922348 0.082733
vt 0.903264 0.131630
vt 0.920786 0.131630
vt 0.596684 0.456578
vt 0.594496 0.458756
vt 0.901703 0.082733
vt 0.899525 0.084921
vt 0.948872 0.301044
vt 0.948872 0.295873
vt 0.907125 0.295982
vt 0.907125 0.300994
vt 0.948872 0.350070
vt 0.948872 0.345684
vt 0.907125 0.345665
vt 0.907125 0.349981
vt 0.948862 0.308452
vt 0.948872 0.305270
vt 0.907115 0.305210
vt 0.907115 0.308542
vt 0.948872 0.341418
vt 0.948872 0.338226
vt 0.907125 0.338097
vt 0.907125 0.341448
vt 0.948862 0.317114
vt 0.948862 0.312738
vt 0.907106 0.312778
vt 0.907106 0.317094
vt 0.490943 0.547560
vt 0.449186 0.547570
vt 0.449196 0.542379
vt 0.490963 0.542538
vt 0.872271 0.714977
vt 0.872261 0.711785
vt 0.830514 0.711794
vt 0.830514 0.715126
vt 0.948862 0.328809
vt 0.948862 0.324592
vt 0.907106 0.324672
vt 0.907115 0.328868
vt 0.872251 0.698847
vt 0.872251 0.695665
vt 0.830484 0.695674
vt 0.830494 0.699006
vt 0.948872 0.333990
vt 0.907115 0.333890
vt 0.491052 0.505435
vt 0.449295 0.505206
vt 0.449305 0.502024
vt 0.491052 0.502114
vt 0.872321 0.736089
vt 0.872321 0.731803
vt 0.830564 0.731902
vt 0.830564 0.736149
vt 0.491082 0.497857
vt 0.449305 0.497728
vt 0.449325 0.493373
vt 0.491092 0.493552
vt 0.449335 0.489086
vt 0.491112 0.489315
vt 0.948862 0.321390
vt 0.907106 0.321321
vt 0.449355 0.485894
vt 0.449375 0.481668
vt 0.491161 0.481767
vt 0.491122 0.485984
vt 0.490972 0.538332
vt 0.449216 0.538172
vt 0.449226 0.534970
vt 0.490982 0.535000
vt 0.491002 0.530754
vt 0.449235 0.530684
vt 0.449245 0.526329
vt 0.491012 0.526458
vt 0.491022 0.522211
vt 0.449265 0.522032
vt 0.449265 0.518840
vt 0.491032 0.518880
vt 0.449275 0.514614
vt 0.491032 0.514674
vt 0.491042 0.509662
vt 0.449285 0.509443
vt 0.907096 0.361765
vt 0.948843 0.361755
vt 0.948852 0.357538
vt 0.907106 0.357548
vt 0.872261 0.707508
vt 0.872251 0.703143
vt 0.830494 0.703252
vt 0.830494 0.707558
vt 0.772356 0.503449
vt 0.772346 0.499203
vt 0.814103 0.499332
vt 0.814103 0.503559
vt 0.638998 0.480017
vt 0.638998 0.482255
vt 0.598256 0.482255
vt 0.593850 0.477840
vt 0.593850 0.460337
vt 0.756699 0.890769
vt 0.715966 0.890769
vt 0.922348 0.130984
vt 0.924526 0.128786
vt 0.714405 0.891416
vt 0.713779 0.895175
vt 0.712227 0.893603
vt 0.641176 0.460337
vt 0.643384 0.460337
vt 0.643384 0.477840
vt 0.641176 0.477840
vt 0.642737 0.479411
vt 0.640539 0.481599
vt 0.770324 0.553585
vt 0.770324 0.594328
vt 0.712227 0.914238
vt 0.713779 0.912677
vt 0.714405 0.916436
vt 0.638998 0.458140
vt 0.792232 0.549190
vt 0.774719 0.549190
vt 0.638998 0.455922
vt 0.598256 0.455922
vt 0.898879 0.086482
vt 0.898879 0.127215
vt 0.642737 0.458756
vt 0.640539 0.456578
vt 0.711571 0.912677
vt 0.711571 0.895175
vt 0.760458 0.893603
vt 0.758280 0.891416
vt 0.594496 0.479411
vt 0.596684 0.481599
vt 0.830534 0.724364
vt 0.872301 0.724394
vt 0.872281 0.719213
vt 0.830524 0.719342
vt 0.772346 0.536385
vt 0.772346 0.532179
vt 0.814103 0.532239
vt 0.814103 0.536445
vt 0.948872 0.354366
vt 0.907115 0.354227
vt 0.772356 0.528967
vt 0.772366 0.524701
vt 0.814103 0.524671
vt 0.814103 0.528897
vt 0.772366 0.520325
vt 0.772366 0.516039
vt 0.814113 0.516109
vt 0.814113 0.520355
vt 0.772366 0.512837
vt 0.814113 0.512767
vt 0.814103 0.508571
vt 0.772366 0.508630
vt 0.872311 0.728611
vt 0.830554 0.728571
vt 0.772346 0.496021
vt 0.814103 0.496011
vt 0.772346 0.491745
vt 0.814103 0.491774
vt 0.772356 0.487369
vt 0.814103 0.487459
vt 0.772366 0.483083
vt 0.814103 0.483212
vt 0.772366 0.479901
vt 0.814123 0.479891
vt 0.772386 0.475674
vt 0.814133 0.475674
vt 0.830564 0.752239
vt 0.872321 0.752159
vt 0.872331 0.747943
vt 0.830564 0.748032
vt 0.872331 0.744731
vt 0.872331 0.740464
vt 0.830564 0.740464
vt 0.830574 0.744681
vt 0.772346 0.541576
vt 0.814093 0.541467
vt 0.872241 0.691448
vt 0.830484 0.691478
vt 0.872321 0.757340
vt 0.830554 0.757261
vt 0.774719 0.598733
vt 0.792232 0.598733
s 1
f 56/1/2 55/2/2 54/3/2 53/4/2
f 156/5/2 155/6/2 154/7/2 153/8/2
f 72/9/7 71/10/7 70/11/7 69/1/7
f 161/12/70 164/13/70 163/14/70 162/15/70
f 161/12/70 166/8/70 165/16/70 164/13/70
f 167/7/70 168/17/70 165/16/70 166/8/70
f 172/13/5 171/16/5 170/18/5 169/19/5
f 176/14/6 175/13/6 174/20/6 173/21/6
f 49/22/4 50/4/4 45/23/4 48/24/4
f 184/16/8 183/17/8 182/25/8 181/26/8
f 188/12/9 187/15/9 186/27/9 185/28/9
f 212/29/5 211/30/5 210/31/5 209/32/5
f 16/33/4 13/34/4 15/35/4 14/36/4
f 193/37/70 198/38/70 197/30/70 196/29/70
f 199/39/70 200/40/70 197/30/70 198/38/70
f 204/41/2 203/42/2 202/39/2 201/38/2
f 208/43/3 207/44/3 206/45/3 205/46/3
f 44/4/1 43/47/1 42/48/1 41/23/1
f 216/46/6 215/29/6 214/49/6 213/50/6
f 220/51/7 219/52/7 218/40/7 217/39/7
f 28/53/6 27/33/6 26/36/6 25/54/6
f 228/37/9 227/45/9 226/55/9 225/56/9
f 232/57/72 231/58/1 230/59/1 229/60/71
f 256/61/95 254/62/93 253/63/93 255/64/94
f 236/65/76 234/66/74 233/67/73 235/68/75
f 252/69/92 250/70/90 249/71/89 251/72/91
f 240/73/80 238/74/78 237/75/77 239/76/79
f 296/77/1 295/78/1 293/79/129 294/80/130
f 128/81/52 126/82/50 125/83/49 127/84/51
f 246/85/86 244/86/84 243/87/83 245/88/85
f 120/89/44 118/90/42 115/91/40 119/92/43
f 250/70/90 247/93/87 248/94/88 249/71/89
f 276/95/112 275/96/111 273/97/109 274/98/110
f 138/99/61 136/100/60 135/101/59 137/102/61
f 272/103/108 271/104/108 269/105/106 270/106/107
f 270/106/107 269/105/106 267/107/104 268/108/105
f 244/86/84 242/109/82 241/110/81 243/87/83
f 266/111/103 265/112/102 264/113/102 263/114/101
f 234/66/74 232/57/72 229/60/71 233/67/73
f 292/115/128 291/116/127 289/117/125 290/118/126
f 238/74/78 236/65/76 235/68/75 237/75/77
f 288/119/124 287/120/123 285/121/121 286/122/122
f 242/109/82 240/73/80 239/76/79 241/110/81
f 284/123/120 283/124/119 281/125/117 282/126/118
f 282/126/118 281/125/117 280/127/116 279/128/115
f 248/94/88 247/93/87 246/85/86 245/88/85
f 278/129/114 277/130/113 275/96/111 276/95/112
f 262/131/100 261/132/100 260/133/99 259/134/98
f 274/98/110 273/97/109 271/104/108 272/103/108
f 124/135/48 122/136/46 121/137/45 123/138/47
f 286/122/122 285/121/121 283/124/119 284/123/120
f 268/108/105 267/107/104 266/111/103 263/114/101
f 99/139/26 102/140/29 101/141/28 100/142/27
f 280/127/116 277/130/113 278/129/114 279/128/115
f 4/143/1 3/144/1 2/145/1 1/34/1
f 254/62/93 252/69/92 251/72/91 253/63/93
f 12/35/3 11/146/3 10/147/3 9/36/3
f 64/148/5 63/22/5 62/24/5 61/149/5
f 52/9/4 51/1/4 50/4/4 49/22/4
f 224/30/8 223/40/8 222/150/8 221/151/8
f 68/152/6 67/24/6 66/153/6 65/154/6
f 32/155/7 31/156/7 30/157/7 29/158/7
f 8/158/2 7/159/2 6/160/2 5/143/2
f 152/161/1 151/162/1 150/8/1 149/12/1
f 80/163/9 79/164/9 78/23/9 77/165/9
f 48/24/4 45/23/4 47/164/4 46/153/4
f 17/166/4 18/143/4 13/34/4 16/33/4
f 193/37/70 196/29/70 195/46/70 194/45/70
f 160/167/3 159/168/3 158/15/3 157/14/3
f 24/169/5 23/166/5 22/33/5 21/170/5
f 192/171/1 191/172/1 190/38/1 189/37/1
f 36/173/8 35/155/8 34/166/8 33/174/8
f 60/164/3 59/175/3 58/176/3 57/153/3
f 76/177/8 75/9/8 74/22/8 73/178/8
f 40/179/9 39/35/9 38/34/9 37/180/9
f 132/181/56 131/182/55 130/183/54 129/184/53
f 84/185/11 86/186/13 85/187/12 81/188/10
f 260/133/99 258/189/97 257/190/96 259/134/98
f 88/191/15 90/192/17 89/193/16 87/194/14
f 130/183/54 128/81/52 127/84/51 129/184/53
f 92/195/19 94/196/21 93/197/20 91/198/18
f 94/196/21 96/199/23 95/200/22 93/197/20
f 258/189/97 256/61/95 255/64/94 257/190/96
f 99/139/26 100/142/27 97/201/24 98/202/25
f 134/203/58 131/182/55 132/181/56 133/204/57
f 102/140/29 104/205/31 103/206/30 101/141/28
f 104/205/31 106/207/32 105/208/32 103/206/30
f 106/207/32 108/209/34 107/210/33 105/208/32
f 108/209/34 110/211/36 109/212/35 107/210/33
f 110/211/36 112/213/38 111/214/37 109/212/35
f 113/215/39 114/216/39 111/214/37 112/213/38
f 146/217/69 145/218/68 144/219/67 143/220/66
f 290/118/126 289/117/125 287/120/123 288/119/124
f 142/221/65 140/222/63 139/223/62 141/224/64
f 140/222/63 138/99/61 137/102/61 139/223/62
f 294/80/130 293/79/129 291/116/127 292/115/128
f 136/100/60 134/203/58 133/204/57 135/101/59
f 20/155/4 19/158/4 18/143/4 17/166/4
f 82/225/1 84/185/11 81/188/10 83/226/1
f 96/199/23 98/202/25 97/201/24 95/200/22
f 144/219/67 142/221/65 141/224/64 143/220/66
f 126/82/50 124/135/48 123/138/47 125/83/49
f 90/192/17 92/195/19 91/198/18 89/193/16
f 122/136/46 120/89/44 119/92/43 121/137/45
f 86/186/13 88/191/15 87/194/14 85/187/12
f 118/90/42 117/227/41 116/228/41 115/91/40
f 148/229/1 145/218/68 146/217/69 147/230/1
f 180/231/7 179/232/7 178/17/7 177/7/7
