# Blender 4.5.2 LTS
# www.blender.org
o craneflat_brakeshoes.001
v -0.797375 0.241194 0.492162
v -0.797405 0.326540 0.517781
v -0.771123 0.241194 0.492162
v -0.771153 0.326540 0.517781
v -0.797405 0.420382 0.527024
v -0.719842 0.241194 0.492162
v -0.719872 0.326540 0.517781
v -0.746121 0.420382 0.527024
v -0.719872 0.420382 0.527024
v -0.746122 0.514223 0.517781
v -0.797405 0.514223 0.517781
v -0.797375 0.595362 0.478994
v -0.797375 0.245401 0.478994
v -0.719856 0.420382 0.498943
v -0.719856 0.508745 0.490240
v -0.719842 0.503897 0.465867
v -0.797375 0.338689 0.456701
v -0.797375 0.260137 0.432872
v -0.719842 0.336867 0.465867
v -0.719842 0.420382 0.474092
v -0.797375 0.420382 0.464747
v -0.719842 0.583458 0.441732
v -0.771154 0.420382 0.527024
v -0.771154 0.420382 0.539592
v -0.771153 0.514223 0.517781
v -0.771123 0.599569 0.492162
v -0.746099 0.599569 0.492162
v -0.797375 0.599569 0.492162
v -0.746099 0.241194 0.492162
v -0.746122 0.326540 0.517781
v -0.746121 0.420382 0.539592
v -0.746122 0.516657 0.530110
v -0.746099 0.603165 0.504142
v -0.746102 0.247484 0.507109
v -0.771126 0.247484 0.507109
v -0.771153 0.324106 0.530110
v -0.746122 0.324106 0.530110
v -0.771153 0.516657 0.530110
v -0.771123 0.603165 0.504142
v -0.797375 0.580627 0.432872
v -0.797375 0.591033 0.465444
v -0.797375 0.502073 0.456701
v -0.797392 0.420382 0.498943
v -0.719872 0.514223 0.517781
v -0.719842 0.599569 0.492162
v -0.719864 0.511532 0.504255
v -0.719864 0.420382 0.513232
v -0.719864 0.329231 0.504255
v -0.719842 0.245401 0.478994
v -0.719842 0.257306 0.441732
v -0.802850 0.329230 0.504252
v -0.797399 0.329231 0.504255
v -0.802851 0.420382 0.513230
v -0.797399 0.420382 0.513232
v -0.797399 0.511532 0.504255
v -0.719842 0.595362 0.478994
v -0.802844 0.508745 0.490238
v -0.797392 0.508745 0.490240
v -0.802844 0.332018 0.490238
v -0.797392 0.332018 0.490240
v -0.802854 0.244565 0.463792
v -0.719842 0.249731 0.465444
v -0.714360 0.244564 0.463795
v -0.719856 0.332018 0.490240
v -0.714404 0.420382 0.498946
v -0.797375 0.249731 0.465444
v -0.802797 0.240181 0.477325
v -0.714418 0.600584 0.477327
v -0.802855 0.596199 0.463792
v -0.802851 0.511533 0.504252
v -0.802844 0.420382 0.498940
v -0.714412 0.511532 0.504257
v -0.714360 0.596200 0.463795
v -0.714404 0.508745 0.490242
v -0.714412 0.420382 0.513235
v -0.714412 0.329231 0.504257
v -0.714404 0.332019 0.490242
v -0.714417 0.240180 0.477327
v -0.802797 0.600583 0.477325
v -0.719842 0.591033 0.465444
v 0.797375 0.241194 0.492162
v 0.797405 0.326540 0.517781
v 0.771123 0.241194 0.492162
v 0.771153 0.326540 0.517781
v 0.797405 0.420382 0.527024
v 0.719842 0.241194 0.492162
v 0.719872 0.326540 0.517781
v 0.746121 0.420382 0.527024
v 0.719872 0.420382 0.527024
v 0.746122 0.514223 0.517781
v 0.797405 0.514223 0.517781
v 0.797375 0.595362 0.478994
v 0.797375 0.245401 0.478994
v 0.719856 0.420382 0.498943
v 0.719856 0.508745 0.490240
v 0.719842 0.503897 0.465867
v 0.797375 0.338689 0.456701
v 0.797375 0.260137 0.432872
v 0.719842 0.336867 0.465867
v 0.719842 0.420382 0.474092
v 0.797375 0.420382 0.464747
v 0.719842 0.583458 0.441732
v 0.771154 0.420382 0.527024
v 0.771154 0.420382 0.539592
v 0.771153 0.514223 0.517781
v 0.771123 0.599569 0.492162
v 0.746099 0.599569 0.492162
v 0.797375 0.599569 0.492162
v 0.746099 0.241194 0.492162
v 0.746122 0.326540 0.517781
v 0.746121 0.420382 0.539592
v 0.746122 0.516657 0.530110
v 0.746099 0.603165 0.504142
v 0.746102 0.247484 0.507109
v 0.771126 0.247484 0.507109
v 0.771153 0.324106 0.530110
v 0.746122 0.324106 0.530110
v 0.771153 0.516657 0.530110
v 0.771123 0.603165 0.504142
v 0.797375 0.580627 0.432872
v 0.797375 0.591033 0.465444
v 0.797375 0.502073 0.456701
v 0.797392 0.420382 0.498943
v 0.719872 0.514223 0.517781
v 0.719842 0.599569 0.492162
v 0.719864 0.511532 0.504255
v 0.719864 0.420382 0.513232
v 0.719864 0.329231 0.504255
v 0.719842 0.245401 0.478994
v 0.719842 0.257306 0.441732
v 0.802850 0.329230 0.504252
v 0.797399 0.329231 0.504255
v 0.802851 0.420382 0.513230
v 0.797399 0.420382 0.513232
v 0.797399 0.511532 0.504255
v 0.719842 0.595362 0.478994
v 0.802844 0.508745 0.490238
v 0.797392 0.508745 0.490240
v 0.802844 0.332018 0.490238
v 0.797392 0.332018 0.490240
v 0.802854 0.244565 0.463792
v 0.719842 0.249731 0.465444
v 0.714360 0.244564 0.463795
v 0.719856 0.332018 0.490240
v 0.714404 0.420382 0.498946
v 0.797375 0.249731 0.465444
v 0.802797 0.240181 0.477325
v 0.714418 0.600584 0.477327
v 0.802855 0.596199 0.463792
v 0.802851 0.511533 0.504252
v 0.802844 0.420382 0.498940
v 0.714412 0.511532 0.504257
v 0.714360 0.596200 0.463795
v 0.714404 0.508745 0.490242
v 0.714412 0.420382 0.513235
v 0.714412 0.329231 0.504257
v 0.714404 0.332019 0.490242
v 0.714417 0.240180 0.477327
v 0.802797 0.600583 0.477325
v 0.719842 0.591033 0.465444
vn -0.0000 -0.9526 -0.3043
vn -0.0000 -0.9970 -0.0779
vn -0.0000 0.9526 -0.3043
vn -0.0000 0.9543 -0.2987
vn -0.0000 -0.0000 1.0000
vn -0.0000 -0.1937 0.9811
vn -0.0000 0.1937 0.9811
vn -0.0000 -0.2875 0.9578
vn -0.0000 0.2875 0.9578
vn 1.0000 -0.0000 0.0006
vn 1.0000 -0.0000 0.0004
vn 1.0000 -0.0000 0.0003
vn -0.0044 -0.1944 0.9809
vn -0.0042 -0.2967 0.9550
vn -1.0000 -0.0000 -0.0003
vn -1.0000 -0.0000 -0.0004
vn -1.0000 0.0001 -0.0004
vn -1.0000 -0.0000 -0.0005
vn -0.0042 0.2966 0.9550
vn -0.0042 0.2967 0.9550
vn -0.0044 0.1944 0.9809
vn 0.0038 -0.2967 0.9550
vn 0.0036 -0.1944 0.9809
vn 0.0039 -0.2967 0.9550
vn 0.0036 0.1944 0.9809
vn 0.0038 0.2967 0.9550
vn 0.0039 0.2966 0.9550
vn -0.0036 0.1944 -0.9809
vn -0.0038 0.2966 -0.9550
vn -0.0038 0.2967 -0.9550
vn -0.0004 -0.0000 1.0000
vn 0.0044 -0.1944 -0.9809
vn 0.0042 -0.2966 -0.9550
vn 0.0041 -0.2967 -0.9550
vn -0.0038 -0.2967 -0.9550
vn -0.0038 -0.2966 -0.9550
vn -0.0035 -0.1944 -0.9809
vn -0.0005 -0.0000 1.0000
vn 0.0042 0.2966 -0.9550
vn 0.0041 0.2967 -0.9550
vn 0.1191 -0.2882 -0.9501
vn 0.1197 -0.1937 -0.9737
vn -1.0000 -0.0000 -0.0000
vn -1.0000 0.0002 -0.0000
vn -1.0000 -0.0001 -0.0004
vn -1.0000 0.0002 -0.0003
vn 1.0000 0.0001 -0.0000
vn 1.0000 0.0002 0.0001
vn -1.0000 -0.0002 -0.0003
vn 0.1197 0.1937 -0.9737
vn 0.1197 -0.0000 -0.9928
vn 0.1191 0.2882 -0.9501
vn -1.0000 -0.0002 -0.0000
vn -1.0000 0.0003 -0.0001
vn -0.0000 0.9578 -0.2875
vn -1.0000 -0.0003 -0.0001
vn 1.0000 -0.0000 -0.0000
vn 1.0000 -0.0001 -0.0000
vn 1.0000 -0.0002 0.0001
vn -0.0000 -0.9217 0.3879
vn 1.0000 -0.0001 0.0005
vn 1.0000 -0.0002 0.0003
vn 1.0000 -0.0003 0.0014
vn 1.0000 0.0001 0.0005
vn 1.0000 0.0002 0.0003
vn 1.0000 0.0003 0.0014
vn 1.0000 0.0005 0.0023
vn 0.0004 -0.0000 -1.0000
vn 0.0044 0.1944 -0.9809
vn 0.0005 -0.0000 -1.0000
vn -0.0000 -0.9513 -0.3082
vn -0.0000 0.9513 -0.3082
vn -1.0000 0.0003 0.0006
vn -1.0000 0.0007 0.0016
vn -1.0000 -0.0003 0.0006
vn -1.0000 -0.0007 0.0016
vn 1.0000 -0.0005 0.0023
vn -1.0000 -0.0000 0.0006
vn -1.0000 -0.0000 0.0004
vn -1.0000 -0.0000 0.0003
vn 0.0044 -0.1944 0.9809
vn 0.0042 -0.2967 0.9550
vn 1.0000 -0.0000 -0.0003
vn 1.0000 -0.0000 -0.0004
vn 1.0000 0.0001 -0.0004
vn 1.0000 -0.0000 -0.0005
vn 0.0042 0.2966 0.9550
vn 0.0044 0.1944 0.9809
vn 0.0042 0.2967 0.9550
vn -0.0038 -0.2967 0.9550
vn -0.0039 -0.2967 0.9550
vn -0.0036 -0.1944 0.9809
vn -0.0036 0.1944 0.9809
vn -0.0039 0.2966 0.9550
vn -0.0038 0.2967 0.9550
vn 0.0036 0.1944 -0.9809
vn 0.0038 0.2967 -0.9550
vn 0.0038 0.2966 -0.9550
vn 0.0004 -0.0000 1.0000
vn -0.0044 -0.1944 -0.9809
vn -0.0041 -0.2967 -0.9550
vn -0.0042 -0.2966 -0.9550
vn 0.0038 -0.2967 -0.9550
vn 0.0035 -0.1944 -0.9809
vn 0.0038 -0.2966 -0.9550
vn 0.0005 -0.0000 1.0000
vn -0.0041 0.2967 -0.9550
vn -0.0042 0.2966 -0.9550
vn -0.1191 -0.2882 -0.9501
vn -0.1197 -0.1937 -0.9737
vn 1.0000 0.0002 -0.0000
vn 1.0000 -0.0001 -0.0004
vn 1.0000 0.0002 -0.0003
vn -1.0000 0.0001 -0.0000
vn -1.0000 0.0002 0.0001
vn 1.0000 -0.0002 -0.0003
vn -0.1197 0.1937 -0.9737
vn -0.1197 -0.0000 -0.9928
vn -0.1191 0.2882 -0.9501
vn 1.0000 -0.0002 -0.0000
vn 1.0000 0.0003 -0.0001
vn 1.0000 -0.0003 -0.0001
vn -1.0000 -0.0001 -0.0000
vn -1.0000 -0.0002 0.0001
vn -1.0000 -0.0001 0.0005
vn -1.0000 -0.0002 0.0003
vn -1.0000 -0.0003 0.0014
vn -1.0000 0.0001 0.0005
vn -1.0000 0.0002 0.0003
vn -1.0000 0.0003 0.0014
vn -1.0000 0.0005 0.0023
vn -0.0004 -0.0000 -1.0000
vn -0.0044 0.1944 -0.9809
vn -0.0005 -0.0000 -1.0000
vn 1.0000 0.0003 0.0006
vn 1.0000 0.0007 0.0016
vn 1.0000 -0.0003 0.0006
vn 1.0000 -0.0007 0.0016
vn -1.0000 -0.0005 0.0023
vt 0.099102 0.963069
vt 0.097940 0.964051
vt 0.098585 0.962458
vt 0.095654 0.987379
vt 0.097250 0.987836
vt 0.098376 0.988827
vt 0.098940 0.990455
vt 0.095883 0.965739
vt 0.095154 0.965357
vt 0.096787 0.964980
vt 0.098598 0.976295
vt 0.098175 0.970108
vt 0.099764 0.969879
vt 0.100262 0.976256
vt 0.057769 0.091327
vt 0.058007 0.097065
vt 0.056440 0.097210
vt 0.056142 0.091327
vt 0.072845 0.278415
vt 0.073624 0.283705
vt 0.072048 0.283845
vt 0.071342 0.278628
vt 0.073922 0.289606
vt 0.072288 0.289607
vt 0.100076 0.982691
vt 0.098893 0.988120
vt 0.097674 0.987333
vt 0.098479 0.982522
vt 0.151901 0.048388
vt 0.151880 0.053715
vt 0.150347 0.053736
vt 0.150399 0.048351
vt 0.152290 0.038411
vt 0.152011 0.043208
vt 0.150569 0.043132
vt 0.150917 0.038300
vt 0.156101 0.240414
vt 0.155770 0.240414
vt 0.155773 0.234779
vt 0.156102 0.235111
vt 0.099489 0.989869
vt 0.096382 0.987001
vt 0.058731 0.080355
vt 0.058008 0.085590
vt 0.056442 0.085444
vt 0.057189 0.080143
vt 0.158557 0.038340
vt 0.158843 0.043241
vt 0.156824 0.043331
vt 0.156648 0.038458
vt 0.095672 0.982376
vt 0.095793 0.976348
vt 0.096695 0.976330
vt 0.096581 0.982399
vt 0.156102 0.256814
vt 0.155773 0.257146
vt 0.155770 0.251511
vt 0.156101 0.251511
vt 0.161126 0.234779
vt 0.161127 0.240414
vt 0.160797 0.240414
vt 0.160798 0.235111
vt 0.161127 0.251511
vt 0.161127 0.257146
vt 0.160798 0.256814
vt 0.160797 0.251511
vt 0.078451 0.145070
vt 0.078121 0.145070
vt 0.078119 0.139535
vt 0.078451 0.139864
vt 0.155770 0.245963
vt 0.156101 0.245963
vt 0.083148 0.155827
vt 0.083478 0.155827
vt 0.083479 0.161361
vt 0.083147 0.161033
vt 0.078451 0.161033
vt 0.078119 0.161362
vt 0.078121 0.155827
vt 0.078451 0.155827
vt 0.161128 0.245962
vt 0.160797 0.245962
vt 0.083479 0.139536
vt 0.083147 0.139864
vt 0.156579 0.058837
vt 0.152003 0.058777
vt 0.156822 0.053755
vt 0.158951 0.048460
vt 0.156864 0.048498
vt 0.074704 0.289606
vt 0.074378 0.295586
vt 0.073626 0.295508
vt 0.096363 0.970288
vt 0.095445 0.970351
vt 0.072848 0.300808
vt 0.071342 0.300596
vt 0.072049 0.295368
vt 0.097285 0.965716
vt 0.098587 0.964950
vt 0.055690 0.085368
vt 0.056383 0.080636
vt 0.156314 0.060824
vt 0.151810 0.060223
vt 0.150550 0.058848
vt 0.074377 0.283626
vt 0.073567 0.300916
vt 0.073653 0.278903
vt 0.055363 0.091327
vt 0.055688 0.097286
vt 0.057186 0.102522
vt 0.056465 0.102625
vt 0.058731 0.102310
vt 0.158951 0.053830
vt 0.158589 0.058989
vt 0.103203 0.993470
vt 0.102593 0.993989
vt 0.250367 0.733700
vt 0.248919 0.728521
vt 0.249725 0.728207
vt 0.251220 0.733550
vt 0.102986 0.959669
vt 0.102404 0.959120
vt 0.105650 0.954922
vt 0.106327 0.955347
vt 0.152139 0.037030
vt 0.156441 0.036561
vt 0.246487 0.723724
vt 0.243073 0.719367
vt 0.243741 0.718823
vt 0.247217 0.723259
vt 0.083148 0.150449
vt 0.083478 0.150449
vt 0.083148 0.145070
vt 0.083478 0.145070
vt 0.078451 0.150449
vt 0.078121 0.150449
vt 0.251655 0.739169
vt 0.251985 0.744512
vt 0.251125 0.744569
vt 0.250795 0.739218
vt 0.243073 0.769770
vt 0.245906 0.765219
vt 0.246636 0.765677
vt 0.243807 0.770222
vt 0.249539 0.760847
vt 0.248757 0.760476
vt 0.251419 0.755628
vt 0.250580 0.755415
vt 0.251380 0.750097
vt 0.252245 0.750141
vt 0.106327 0.997964
vt 0.105628 0.998355
s 1
f 6/1/1 29/2/2 49/3/1
f 12/4/3 26/5/4 27/6/4 56/7/3
f 1/8/1 13/9/1 3/10/2
f 24/11/5 36/12/6 37/13/6 31/14/5
f 9/15/5 44/16/7 10/17/7 8/18/5
f 3/19/8 4/20/6 2/21/6 1/22/8
f 4/20/6 23/23/5 5/24/5 2/21/6
f 32/25/7 33/26/9 39/27/9 38/28/7
f 20/29/10 16/30/11 15/31/11 14/32/10
f 50/33/12 19/34/11 64/35/11 62/36/12
f 52/37/13 51/38/13 67/39/14 13/40/14
f 45/41/3 56/7/3 27/6/4
f 28/42/3 26/5/4 12/4/3
f 6/43/8 7/44/6 30/45/6 29/46/8
f 66/47/15 60/48/16 17/49/16 18/50/15
f 55/51/17 54/52/18 5/53/18 11/54/17
f 12/55/19 79/56/20 70/57/21 55/58/21
f 78/59/22 76/60/23 48/61/23 49/62/24
f 72/63/25 68/64/26 56/65/27 46/66/25
f 13/40/14 67/39/14 78/59/22 49/62/24
f 64/67/28 77/68/28 63/69/29 62/70/30
f 55/58/21 70/57/21 53/71/31 54/72/31
f 54/72/31 53/71/31 51/38/13 52/37/13
f 58/73/32 57/74/32 69/75/33 41/76/34
f 56/65/27 68/64/26 79/56/20 12/55/19
f 80/77/35 73/78/36 74/79/37 15/80/37
f 76/60/23 75/81/38 47/82/38 48/61/23
f 62/70/30 63/69/29 61/83/39 66/84/40
f 41/76/34 69/75/33 73/78/36 80/77/35
f 40/85/41 22/86/41 16/30/42 42/87/42
f 60/48/16 43/88/18 21/89/18 17/49/16
f 24/90/43 38/91/44 25/92/44 23/23/43
f 2/93/45 5/53/18 54/52/18 52/94/45
f 25/92/7 26/95/9 28/96/9 11/97/7
f 7/44/6 9/15/5 8/18/5 30/45/6
f 23/23/5 25/92/7 11/97/7 5/24/5
f 37/13/6 36/12/6 35/98/8 34/99/8
f 12/4/46 55/51/17 11/54/17 28/42/46
f 30/45/47 37/100/47 34/101/48 29/46/48
f 1/8/49 2/93/45 52/94/45 13/9/49
f 41/102/3 80/103/3 22/86/3 40/85/3
f 14/32/10 64/35/11 19/34/11 20/29/10
f 80/104/12 15/31/11 16/30/11 22/86/12
f 17/49/50 21/89/51 20/29/51 19/34/50
f 42/87/42 16/30/42 20/29/51 21/89/51
f 17/49/50 19/34/50 50/33/52 18/50/52
f 36/105/53 24/90/43 23/23/43 4/20/53
f 38/91/44 39/106/54 26/95/54 25/92/44
f 26/5/4 39/27/55 33/26/55 27/6/4
f 35/107/56 36/105/53 4/20/53 3/19/56
f 8/18/57 31/108/57 37/100/47 30/45/47
f 10/17/58 32/109/58 31/108/57 8/18/57
f 27/110/59 33/111/59 32/109/58 10/17/58
f 29/2/2 34/99/60 35/98/60 3/10/2
f 44/16/7 45/112/9 27/110/9 10/17/7
f 32/25/7 38/28/7 24/11/5 31/14/5
f 40/85/15 42/87/16 58/113/16 41/114/15
f 42/87/16 21/89/18 43/88/18 58/113/16
f 44/115/61 46/116/61 56/7/62 45/41/62
f 77/117/63 65/118/10 75/119/10 76/120/63
f 7/121/64 48/122/64 47/123/10 9/124/10
f 6/1/65 49/3/65 48/122/64 7/121/64
f 62/125/1 66/126/1 18/50/1 50/33/1
f 74/127/66 73/128/67 68/129/67 72/130/66
f 75/81/38 72/63/25 46/66/25 47/82/38
f 43/131/68 71/132/68 57/74/32 58/73/32
f 60/133/69 59/134/69 71/132/68 43/131/68
f 14/135/70 65/136/70 77/68/28 64/67/28
f 15/80/37 74/79/37 65/136/70 14/135/70
f 78/137/71 67/138/71 61/139/71 63/140/71
f 73/141/72 69/142/72 79/143/72 68/144/72
f 70/145/73 79/143/74 69/142/74 57/146/73
f 53/147/18 70/145/73 57/146/73 71/148/18
f 59/149/75 51/150/75 53/147/18 71/148/18
f 61/139/76 67/138/76 51/150/75 59/149/75
f 78/137/77 63/140/77 77/117/63 76/120/63
f 75/119/10 65/118/10 74/127/66 72/130/66
f 9/151/10 47/152/10 46/116/61 44/115/61
f 3/10/2 13/9/1 49/3/1 29/2/2
f 66/84/40 61/83/39 59/134/69 60/133/69
f 86/1/1 129/3/1 109/2/2
f 92/4/3 136/7/3 107/6/4 106/5/4
f 81/8/1 83/10/2 93/9/1
f 104/11/5 111/14/5 117/13/6 116/12/6
f 89/15/5 88/18/5 90/17/7 124/16/7
f 83/19/8 81/22/8 82/21/6 84/20/6
f 84/20/6 82/21/6 85/24/5 103/23/5
f 112/25/7 118/28/7 119/27/9 113/26/9
f 100/29/78 94/32/78 95/31/79 96/30/79
f 130/33/80 142/36/80 144/35/79 99/34/79
f 132/37/81 93/40/82 147/39/82 131/38/81
f 125/41/3 107/6/4 136/7/3
f 108/42/3 92/4/3 106/5/4
f 86/43/8 109/46/8 110/45/6 87/44/6
f 146/47/83 98/50/83 97/49/84 140/48/84
f 135/51/85 91/54/85 85/53/86 134/52/86
f 92/55/87 135/58/88 150/57/88 159/56/89
f 158/59/90 129/62/91 128/61/92 156/60/92
f 152/63/93 126/66/93 136/65/94 148/64/95
f 93/40/82 129/62/91 158/59/90 147/39/82
f 144/67/96 142/70/97 143/69/98 157/68/96
f 135/58/88 134/72/99 133/71/99 150/57/88
f 134/72/99 132/37/81 131/38/81 133/71/99
f 138/73/100 121/76/101 149/75/102 137/74/100
f 136/65/94 92/55/87 159/56/89 148/64/95
f 160/77/103 95/80/104 154/79/104 153/78/105
f 156/60/92 128/61/92 127/82/106 155/81/106
f 142/70/97 146/84/107 141/83/108 143/69/98
f 121/76/101 160/77/103 153/78/105 149/75/102
f 120/85/109 122/87/110 96/30/110 102/86/109
f 140/48/84 97/49/84 101/89/86 123/88/86
f 104/90/57 103/23/57 105/92/111 118/91/111
f 82/93/112 132/94/112 134/52/86 85/53/86
f 105/92/7 91/97/7 108/96/9 106/95/9
f 87/44/6 110/45/6 88/18/5 89/15/5
f 103/23/5 85/24/5 91/97/7 105/92/7
f 117/13/6 114/99/8 115/98/8 116/12/6
f 92/4/113 108/42/113 91/54/85 135/51/85
f 110/45/114 109/46/115 114/101/115 117/100/114
f 81/8/116 93/9/116 132/94/112 82/93/112
f 121/102/3 120/85/3 102/86/3 160/103/3
f 94/32/78 100/29/78 99/34/79 144/35/79
f 160/104/80 102/86/80 96/30/79 95/31/79
f 97/49/117 99/34/117 100/29/118 101/89/118
f 122/87/110 101/89/118 100/29/118 96/30/110
f 97/49/117 98/50/119 130/33/119 99/34/117
f 116/105/120 84/20/120 103/23/57 104/90/57
f 118/91/111 105/92/111 106/95/121 119/106/121
f 106/5/4 107/6/4 113/26/55 119/27/55
f 115/107/122 83/19/122 84/20/120 116/105/120
f 88/18/43 110/45/114 117/100/114 111/108/43
f 90/17/123 88/18/43 111/108/43 112/109/123
f 107/110/124 90/17/123 112/109/123 113/111/124
f 109/2/2 83/10/2 115/98/60 114/99/60
f 124/16/7 90/17/7 107/110/9 125/112/9
f 112/25/7 111/14/5 104/11/5 118/28/7
f 120/85/83 121/114/83 138/113/84 122/87/84
f 122/87/84 138/113/84 123/88/86 101/89/86
f 124/115/125 125/41/126 136/7/126 126/116/125
f 157/117/127 156/120/127 155/119/78 145/118/78
f 87/121/128 89/124/78 127/123/78 128/122/128
f 86/1/129 87/121/128 128/122/128 129/3/129
f 142/125/1 130/33/1 98/50/1 146/126/1
f 154/127/130 152/130/130 148/129/131 153/128/131
f 155/81/106 127/82/106 126/66/93 152/63/93
f 123/131/132 138/73/100 137/74/100 151/132/132
f 140/133/133 123/131/132 151/132/132 139/134/133
f 94/135/134 144/67/96 157/68/96 145/136/134
f 95/80/104 94/135/134 145/136/134 154/79/104
f 158/137/71 143/140/71 141/139/71 147/138/71
f 153/141/72 148/144/72 159/143/72 149/142/72
f 150/145/135 137/146/135 149/142/136 159/143/136
f 133/147/86 151/148/86 137/146/135 150/145/135
f 139/149/137 151/148/86 133/147/86 131/150/137
f 141/139/138 139/149/137 131/150/137 147/138/138
f 158/137/139 156/120/127 157/117/127 143/140/139
f 155/119/78 152/130/130 154/127/130 145/118/78
f 89/151/78 124/115/125 126/116/125 127/152/78
f 83/10/2 109/2/2 129/3/1 93/9/1
f 146/84/107 140/133/133 139/134/133 141/83/108
